<svg width="113" height="48" viewBox="0 0 113 48" fill="none" xmlns="http://www.w3.org/2000/svg">
<path fill-rule="evenodd" clip-rule="evenodd" d="M9.4989 10C6.18076 10 2.2906 12.3944 2.2906 14.5833C2.2906 15.3578 2.93841 16.0224 4.27521 16.1303C4.1123 16.8404 4.0022 17.6677 4.0022 18.6086C4.0022 18.6656 4.0025 18.7225 4.0031 18.7792C2.10938 18.7574 0.919755 17.8097 0.919755 16.4358C0.919755 16.0187 1.00203 15.7374 1.03135 15.6372L1.0357 15.6223L0.968439 15.5966C0.874916 15.7581 0.501465 16.4896 0.501465 17.2384C0.501465 18.5486 1.74898 19.7701 4.05519 19.906C4.14111 20.9452 4.32947 21.9273 4.60547 22.8395L4.56828 22.8395C1.38914 22.8395 0.209855 21.3592 0.0670088 20.5322H0.00231098C-0.06913 22.0901 1.51414 23.8405 4.98425 23.9157C5.39622 24.9353 5.92474 25.8476 6.54453 26.6306C6.42768 26.6343 6.31194 26.6362 6.19739 26.6362C4.21164 26.6362 2.51093 26.0629 1.64744 25.307L1.59235 25.348C1.93634 25.9636 3.56594 27.4798 6.68743 27.4798C6.88722 27.4798 7.088 27.4753 7.28948 27.4663C8.12921 28.3012 9.09148 28.9296 10.1299 29.3112C8.88012 29.4491 7.61648 29.3898 6.38511 29.1357L6.35885 29.217C6.38347 29.2261 6.41198 29.2369 6.44432 29.2492L6.44534 29.2495C6.90432 29.4234 8.13013 29.8877 9.93578 29.8877C14.3128 29.8877 17.2709 27.1679 18.4624 25.1007L18.3772 25.0437C17.9099 25.6054 17.384 26.1157 16.8084 26.5657C16.6707 25.7738 16.4793 24.9938 16.2432 24.2316C17.1697 23.5233 17.96 22.7257 18.5525 21.8662C18.7265 22.6961 18.7994 23.5311 18.7602 24.3506L18.8659 24.3782C19.0017 23.9458 19.0773 23.3507 19.0837 22.3899C19.0837 21.9925 19.0478 21.586 18.9781 21.1749C19.4565 20.2948 19.7255 19.3612 19.7255 18.4004C19.7255 17.7882 19.5976 17.3817 19.5566 17.2516C19.5534 17.2414 19.5508 17.233 19.5487 17.2263L19.4744 17.2442C19.4879 18.2483 19.2137 19.2082 18.7241 20.1046C18.4644 19.2496 18.0697 18.3914 17.5587 17.5694C17.9704 16.798 18.1996 15.9984 18.1996 15.1963C18.1996 13.9062 17.3816 13.2246 17.2451 13.1208L17.1913 13.167C17.2944 13.3527 17.477 13.7723 17.477 14.4449C17.477 15.1457 17.2593 15.8643 16.867 16.5719C16.277 15.8046 15.5834 15.0874 14.8036 14.4571C15.0575 13.9304 15.1967 13.3953 15.1967 12.8665C15.1967 11.3426 13.7542 10.5144 12.753 10.3433L12.7337 10.4023C13.0451 10.5009 14.1866 11.0313 14.1866 12.3893C14.1866 12.8208 14.0575 13.2773 13.8202 13.7398C13.1258 13.2849 12.3781 12.8985 11.5869 12.6007C11.7555 12.2613 11.8466 11.9236 11.8466 11.6008C11.8466 10.5547 10.8415 10 9.4989 10ZM18.2792 20.8202C18.0043 19.9422 17.6195 19.0798 17.1381 18.2583C16.5454 19.1197 15.7316 19.9339 14.7669 20.662C15.1923 21.4803 15.5754 22.3368 15.901 23.2218C16.8469 22.5063 17.6652 21.699 18.2792 20.8202ZM15.3565 23.6141C14.9923 22.7564 14.5841 21.9181 14.1429 21.1069C13.0227 21.8618 11.7396 22.5042 10.3851 22.9836C10.8352 23.8525 11.3087 24.6921 11.7982 25.4773C13.0528 24.9884 14.2724 24.3585 15.3565 23.6141ZM11.1641 25.7114C10.6285 24.9316 10.1226 24.0934 9.65609 23.2236C8.36563 23.617 7.02681 23.8593 5.715 23.9088C6.14969 24.8882 6.69468 25.7922 7.32954 26.58C8.55472 26.4623 9.86896 26.1633 11.1641 25.7114ZM8.07499 27.4095C9.32338 27.2852 10.5847 26.9994 11.7931 26.5814C12.3305 27.2864 12.8922 27.9273 13.4698 28.4797C12.6008 28.8244 11.697 29.074 10.7743 29.2241C9.78687 28.8329 8.87681 28.2076 8.07499 27.4095ZM12.3763 26.3678C13.5899 25.8984 14.7374 25.2962 15.749 24.592C16.0263 25.3254 16.2695 26.0704 16.4721 26.8226C15.662 27.4176 14.7869 27.9187 13.8637 28.3164C13.3603 27.7423 12.8622 27.0852 12.3763 26.3678ZM5.28791 22.8192C6.55786 22.7483 7.8456 22.4947 9.08469 22.1026C8.65315 21.211 8.26491 20.2994 7.92944 19.3948C6.84334 19.7139 5.72336 19.9017 4.63699 19.9175C4.74823 20.9143 4.9702 21.8915 5.28791 22.8192ZM9.81976 21.8518C11.15 21.3649 12.4064 20.7232 13.502 19.9848C12.9913 19.1323 12.4478 18.3162 11.8856 17.5464C10.9182 18.1996 9.80272 18.7587 8.6287 19.1697C8.99449 20.066 9.39397 20.9682 9.81976 21.8518ZM16.4598 17.2164C15.8828 18.03 15.0864 18.8168 14.1386 19.5312C13.6268 18.6668 13.0717 17.8549 12.4937 17.1082C13.3232 16.47 14.01 15.7616 14.4838 15.0253C15.2263 15.6851 15.8896 16.4242 16.4598 17.2164ZM13.5189 14.2463C12.8496 13.7568 12.1297 13.3295 11.3673 12.9793C11.043 13.469 10.5675 13.9516 9.98204 14.3867C10.5507 14.8948 11.1246 15.4775 11.6865 16.1239C12.4546 15.5335 13.0838 14.8908 13.5189 14.2463ZM11.1159 16.5353C10.5949 15.8787 10.0638 15.2636 9.53294 14.6972C8.89878 15.105 8.1656 15.456 7.37418 15.7103C7.60947 16.4572 7.87923 17.2343 8.17824 18.0244C9.25206 17.6355 10.252 17.1202 11.1159 16.5353ZM7.52901 18.241C7.2646 17.4224 7.04788 16.6193 6.88614 15.8527C6.198 16.0333 5.47409 16.1389 4.73909 16.1453C4.62883 16.8171 4.55501 17.5888 4.55501 18.4529C4.55501 18.5581 4.55629 18.6632 4.55884 18.7683C5.56827 18.7216 6.57192 18.5334 7.52901 18.241ZM5.65866 13.1112C5.53303 13.3786 5.18682 14.1156 4.91532 15.2629C5.50646 15.2629 6.12305 15.1639 6.72535 14.9918C6.61329 14.2972 6.55271 13.6421 6.54973 13.044L6.64838 13.0145C6.77312 13.5938 6.93153 14.2159 7.11977 14.868C7.74863 14.6531 8.35171 14.3625 8.88192 14.0266C8.37215 13.5203 7.86666 13.062 7.37479 12.6584L7.44781 12.6071C8.01826 12.8874 8.62833 13.2817 9.25411 13.7747C9.75511 13.4123 10.1687 13.0106 10.4452 12.6018C9.63807 12.3104 8.79027 12.1047 7.9103 12.0005L7.92119 11.9262C8.85975 11.9262 9.76578 12.0553 10.6282 12.2902C10.7541 12.0367 10.823 11.7837 10.823 11.5386C10.823 11.1473 10.5072 10.31 8.86218 10.3094C6.33898 10.3094 3.08426 12.3227 3.08426 14.0228C3.08426 14.7052 3.58562 15.1497 4.52167 15.2441C4.90757 14.0713 5.39542 13.3454 5.56614 13.0914C5.57892 13.0724 5.5901 13.0558 5.59913 13.0421L5.67664 13.0728L5.65866 13.1112Z" fill="#1C1C1E"/>
<path fill-rule="evenodd" clip-rule="evenodd" d="M24.8597 35.6016H28.8966V32.0676H33.2198C36.0825 32.0676 37.1131 30.3809 37.1131 28.2011C37.1131 25.6702 36.0536 24.2379 33.1903 24.2379H24.8597V35.6016ZM28.8966 26.9116H31.5018C32.5183 26.9116 32.9046 27.262 32.9046 28.1217C32.9046 28.9486 32.5177 29.299 31.5018 29.299H28.8966V26.9116Z" fill="#1C1C1E"/>
<path d="M38.4442 24.2385H49.3089V27.0071H42.4811V28.5348H48.8227V31.3046H42.4811V32.8324H49.3089V35.6016H38.4442V24.2385Z" fill="#1C1C1E"/>
<path fill-rule="evenodd" clip-rule="evenodd" d="M50.9981 35.6016H55.0349V32.0676H59.3581C62.2221 32.0676 63.2515 30.3809 63.2515 28.2011C63.2515 25.6702 62.192 24.2379 59.3293 24.2379H50.9981V35.6016ZM55.0343 26.9116H57.6395C58.6567 26.9116 59.043 27.262 59.043 28.1217C59.043 28.9486 58.6561 29.299 57.6395 29.299H55.0343V26.9116Z" fill="#1C1C1E"/>
<path d="M67.1596 30.7787C65.1841 30.445 64.3687 29.1709 64.3687 27.5797C64.3687 24.6357 66.9597 23.8401 70.2805 23.8401C74.8317 23.8401 76.7073 25.161 76.8514 27.5644H72.156C72.156 27.1019 71.912 26.8149 71.5404 26.656C71.1824 26.4824 70.725 26.4177 70.2805 26.4177C69.0781 26.4177 68.663 26.7521 68.663 27.23C68.663 27.5477 68.7918 27.7553 69.1921 27.8187L74.0162 28.6143C76.0494 28.948 77.3094 29.9992 77.3094 31.9247C77.3094 34.6939 75.2762 35.9987 70.7385 35.9987C67.633 35.9987 64.2399 35.5215 64.2252 32.1797H69.0922C69.1069 32.5608 69.2363 32.8151 69.5227 32.9906C69.8231 33.1501 70.267 33.2295 70.8967 33.2295C72.1567 33.2295 72.5007 32.8478 72.5007 32.3065C72.5007 31.9728 72.3143 31.6384 71.7698 31.5436L67.1596 30.7787Z" fill="#1C1C1E"/>
<path d="M78.6245 24.2385H82.662V35.6016H78.6245V24.2385Z" fill="#1C1C1E"/>
<path d="M97.6197 31.1785H93.0686C92.7394 32.5473 91.981 33.1367 90.7062 33.1367C89.2323 33.1367 88.2151 32.2296 88.2151 29.9217C88.2151 27.6137 89.2598 26.706 90.9061 26.706C92.4665 26.706 92.954 27.8834 93.068 28.6956H97.6192C97.0901 24.1918 93.3396 23.8414 90.9061 23.8414C88.4591 23.8414 83.9213 24.0329 83.9213 29.921C83.9213 35.8085 88.4591 36 90.9061 36C93.3684 36 94.9148 35.5388 95.9019 34.7105C96.9041 33.8832 97.3621 32.6742 97.6197 31.1785Z" fill="#1C1C1E"/>
<path fill-rule="evenodd" clip-rule="evenodd" d="M98.6083 29.9204C98.6083 35.8078 103.146 35.9994 105.593 35.9994C108.041 35.9994 112.579 35.8078 112.579 29.9204C112.579 24.0323 108.041 23.8407 105.593 23.8407C103.146 23.8401 98.6083 24.0316 98.6083 29.9204ZM102.903 29.9204C102.903 27.6124 103.949 26.7047 105.594 26.7047C107.24 26.7047 108.286 27.6124 108.286 29.9204C108.286 32.2283 107.24 33.1354 105.594 33.1354C103.948 33.1347 102.903 32.2277 102.903 29.9204Z" fill="#1C1C1E"/>
</svg>
