<svg width="112" height="48" viewBox="0 0 112 48" fill="none" xmlns="http://www.w3.org/2000/svg">
<path d="M66.2791 26.9185C65.804 29.9093 64.2316 31.4771 62.3507 31.4771C61.1604 31.4771 60.4697 30.6522 60.6754 29.3739L61.3318 25.3121C61.5865 23.807 62.4976 22.63 64.1337 22.63C65.9411 22.63 66.764 23.8408 66.2791 26.9137M59.828 32.876C60.0827 32.876 60.695 33.9325 62.674 33.9325C66.8963 33.9325 69.3161 30.9223 69.9773 27.0391C70.815 22.2489 68.4491 20.0733 65.4709 20.0733C64.07 20.0733 63.0266 20.1987 62.2625 20.5943L63.4136 14.0096H59.9113L56.4237 33.6913H59.0639C59.0639 33.6913 59.4509 32.8808 59.8525 32.8808H59.828V32.876ZM97.163 24.4824C97.6969 21.5012 96.5752 20.0444 93.2982 20.0444C90.854 20.0444 89.889 21.1056 88.9779 22.0077L89.0661 20.3483L85.8185 20.3676L85.5687 22.823L83.6877 33.6913H87.2439L88.3901 26.6339C88.7967 24.2026 90.5013 22.3454 92.103 22.3454C93.886 22.3454 93.8664 23.3488 93.5823 24.878L92.0296 33.6864H95.5564L97.1581 24.4727L97.163 24.4824ZM111.995 20.0781H107.846L103.08 25.0516L103.012 25.0371L104.922 14.0241H101.459L97.9712 33.6961H101.483L101.841 31.7231L102.556 27.4153C104.413 27.4153 105.456 27.6131 106.269 31.2455L106.832 33.6961H110.418C110.418 33.6961 109.526 29.972 108.943 28.52C108.326 26.9908 107.665 25.9778 106.235 25.7028L112 20.0781H111.995ZM10.0464 24.9021C12.6132 24.3473 13.9504 22.3068 14.308 20.9754C15.224 17.3189 13.5732 14.4631 8.83656 14.5113H3.40923L0 33.6913H3.53658L4.9375 25.9826C8.19978 25.8958 8.59655 26.6773 9.20884 30.4206L9.77214 33.6913H13.4361C13.005 31.7086 12.7258 29.8418 12.3682 28.3415C11.9813 26.7593 11.3935 25.5244 9.86521 24.9407L10.0464 24.9021ZM10.7567 20.3338C10.453 22.0367 9.11087 23.233 7.46014 23.233H5.37345L6.45108 17.1741H8.34673C10.5951 17.1741 11.0359 18.6261 10.7567 20.3338ZM26.7448 23.9566C27.2542 21.0478 25.677 20.0444 22.4931 20.0444C18.5205 20.0444 16.7963 21.9016 16.7963 21.9016L18.016 23.9276C18.016 23.9276 19.2994 22.4467 21.8612 22.4467C23.2866 22.4467 23.316 23.1655 23.1837 23.9276L22.9045 25.6546C17.7907 25.5292 15.1701 26.6097 14.5872 29.9141C14.1072 32.6204 16.1693 33.9276 18.4813 33.9276C19.6765 33.9276 20.6415 33.7492 21.8122 32.7506C22.0424 33.397 22.4539 33.7443 22.9094 33.8167C23.6442 33.9662 24.9177 33.7974 25.2998 33.5224C25.2704 33.122 25.2998 32.0994 25.7309 29.6922L26.7497 23.9518L26.7448 23.9566ZM22.5469 27.4925C21.9787 31.4481 21.4448 31.8437 19.51 31.8437C18.1874 31.8437 17.6976 30.9513 17.918 29.7791C18.2266 28.1823 19.4512 27.4877 22.5469 27.4877M82.8452 23.9518C83.3547 21.0429 81.7774 20.0396 78.5935 20.0396C74.6258 20.0396 72.8967 21.8968 72.8967 21.8968L74.1213 23.9228C74.1213 23.9228 75.4047 22.4419 77.9567 22.4419C79.387 22.4419 79.4164 23.1606 79.2792 23.9228L79 25.6498C73.8813 25.5244 71.2656 26.6049 70.6778 29.9093C70.1929 32.6155 72.2551 33.9228 74.5671 33.9228C75.7623 33.9228 76.7321 33.7443 77.9028 32.7458C78.1281 33.3922 78.5347 33.7395 78.9951 33.8119C79.7299 33.9614 81.0035 33.7926 81.3855 33.5176C81.361 33.1172 81.3855 32.0946 81.8166 29.6874L82.8452 23.9469V23.9518ZM78.6474 27.4877C78.0841 31.4433 77.5501 31.8389 75.6104 31.8389C74.2879 31.8389 73.798 30.9465 74.0185 29.7742C74.327 28.1775 75.5516 27.4829 78.6474 27.4829M33.8474 33.9228C38.0697 33.9228 40.4895 30.9127 41.1459 27.0294C41.9835 22.2393 39.6225 20.0637 36.6394 20.0637C35.2385 20.0637 34.2294 20.1891 33.4408 20.5847L34.587 14H31.07L27.5824 33.6816H30.2275C30.2275 33.6816 30.6096 32.8712 30.9916 32.8712C31.2464 32.8664 31.8586 33.9228 33.8425 33.9228M35.3169 22.6204C37.1243 22.6204 37.8885 23.8215 37.4623 26.904C37.0264 30.054 35.4148 31.4674 33.5094 31.4674C32.3142 31.4674 31.6284 30.6377 31.8538 29.3594L32.515 25.3025C32.7697 23.7974 33.6808 22.6204 35.2875 22.6204H35.312H35.3169ZM42.6202 28.1003C43.164 23.0883 45.4564 19.9913 50.9131 19.9913C54.9591 19.9913 56.3012 23.0352 55.7575 26.3058C54.8905 31.535 52.8185 34 47.6312 34C44.271 34 42.2774 31.3034 42.6251 28.1003M52.0642 26.547C52.3238 25.1626 52.5981 22.4708 50.1783 22.4708C48.5521 22.4708 47.0336 23.5562 46.3479 27.3671C45.9315 29.6971 46.3871 31.5639 48.2729 31.5639C49.6493 31.5639 51.3344 30.4448 52.0642 26.547Z" fill="#1C1C1E"/>
</svg>
