<svg width="127" height="48" viewBox="0 0 127 48" fill="none" xmlns="http://www.w3.org/2000/svg">
<path fill-rule="evenodd" clip-rule="evenodd" d="M28.3509 18.1427H31.3703L26.6546 22.5299L30.2374 28.7316H27.218L24.7607 24.1638L23.4383 25.3735L22.9815 28.7316H20.5622L22.0026 18.1427H24.422L23.8355 22.4539L28.3509 18.1427ZM34.7339 21.0474L33.6885 28.7316H31.4599L32.506 21.0474H34.7339ZM32.8569 18.1427H35.1737L34.9287 19.9429H32.6126L32.8569 18.1427ZM38.1917 21.0474L38.039 22.166C39.0919 20.8953 39.975 20.7595 40.5174 20.7595C41.9836 20.7595 42.3923 21.7431 42.4921 22.3025C43.6067 20.8953 44.6222 20.7595 45.2521 20.7595C46.3959 20.7595 47.7122 21.3196 47.3395 24.0572L46.7034 28.7316H44.4762L45.0912 24.2086C45.1836 23.5277 45.2772 22.3025 44.2366 22.3025C43.6942 22.3025 42.8199 22.6955 42.6 24.3145L41.9992 28.7316H39.7707L40.3857 24.2086C40.5255 23.1802 40.4841 22.3025 39.5161 22.3025C39.0179 22.3025 38.1123 22.7111 37.8937 24.3145L37.293 28.7316H35.0644L36.1098 21.0474H38.1917ZM50.5747 28.7316H48.5084L49.9489 18.1427H52.1774L51.6778 21.8185C52.2792 21.1682 53.1556 20.7595 54.0645 20.7595C56.044 20.7595 57.3161 22.1817 56.9515 24.8589C56.5239 28.0059 54.5092 29.0194 52.9703 29.0194C51.8563 29.0194 51.3377 28.6257 50.7451 27.809H50.701L50.5747 28.7316ZM52.5345 27.4764C53.5018 27.4764 54.3917 26.6442 54.6307 24.8895C54.6802 24.5263 54.9531 22.3025 53.2377 22.3025C52.2114 22.3025 51.3859 23.0892 51.1415 24.8895C50.8666 26.9164 51.743 27.4764 52.5345 27.4764ZM65.713 26.5078C64.7864 28.7927 62.6882 29.0194 61.501 29.0194C59.0525 29.0194 57.6819 27.6733 58.0628 24.8745C58.394 22.4389 60.1325 20.7595 62.8002 20.7595C66.1712 20.7595 66.2058 23.6336 66.0599 25.0252L66.0178 25.4488H60.3008C60.1922 26.3564 60.4793 27.4757 61.8139 27.4757C62.5321 27.4757 63.1953 27.1275 63.4553 26.5071L65.713 26.5078ZM63.8761 24.1638C64.0676 22.4389 63.0154 22.3032 62.5606 22.3032C61.1385 22.3032 60.6389 23.4979 60.4753 24.1638H63.8761ZM73.0286 22.3032C70.4566 22.031 69.9101 23.9968 69.6943 25.5852L69.266 28.7322H67.0388L68.0835 21.048H70.312L70.1409 22.3038C70.9229 20.9727 72.0953 20.7609 72.9757 20.7609H73.2397L73.0286 22.3032ZM76.9237 18.1427L75.4839 28.7316H73.2554L74.6951 18.1427H76.9237ZM77.6595 29.9874C77.8543 30.0627 78.0702 30.0933 78.3635 30.0933C79.0674 30.0933 79.3552 29.5943 79.5935 29.0194L79.7489 28.6406L77.5414 21.0474H80.2248L81.2735 26.0543L83.2876 21.0474H85.6635L81.9673 29.1402C81.4025 30.3804 80.8181 31.6668 79.0002 31.6668C78.4436 31.6668 77.8625 31.622 77.4504 31.531L77.6595 29.9874ZM85.6635 23.2671H89.7262L89.4791 25.1583H85.417L85.6635 23.2671ZM99.6776 24.9954C99.362 26.3414 98.3356 29.0343 94.6822 29.0343C92.4326 29.0343 89.9889 28.0507 90.5659 23.6336C90.9189 20.9258 92.2907 17.8399 96.0575 17.8399C99.2914 17.8399 100.15 19.8669 99.9899 21.7431H97.7131C97.7315 20.0943 96.6182 19.8974 95.902 19.8974C93.7794 19.8974 93.2343 22.348 93.0795 23.5434C92.8433 25.3429 93.3477 26.9775 95.0481 26.9775C96.6365 26.9775 97.2013 25.6613 97.3724 24.996L99.6776 24.9954ZM103.96 18.1427L102.578 28.7316H100.441L101.823 18.1427H103.96ZM105.169 23.5277C105.38 22.2421 106.247 20.7595 108.891 20.7595C112.249 20.7595 111.896 22.9229 111.79 23.6336L111.29 27.1431C111.177 27.8993 111.101 28.4892 111.522 28.5958L111.505 28.7316H109.256L109.172 27.9754H109.13C108.24 28.9888 106.914 29.0194 106.604 29.0194C104.497 29.0194 104.295 27.6577 104.408 26.7956C104.632 25.0714 105.934 24.5724 107.835 24.3294C109.279 24.1482 109.56 24.1482 109.668 23.5277C109.678 23.4524 109.685 23.392 109.696 23.316C109.717 23.149 109.799 22.3025 108.675 22.3025C108.381 22.3025 107.364 22.3324 107.209 23.5277H105.169ZM109.48 25.0714C108.778 25.3891 108.843 25.3286 108.021 25.48C107.648 25.5404 106.743 25.6918 106.626 26.5845C106.54 27.2497 107.128 27.4764 107.606 27.4764C108.014 27.4764 109.205 27.1744 109.417 25.5554L109.48 25.0714ZM118.626 22.3032C116.16 22.031 115.637 23.9968 115.428 25.5852L115.018 28.7322H112.881L113.884 21.048H116.021L115.857 22.3038C116.607 20.9727 117.731 20.7609 118.575 20.7609H118.828L118.626 22.3032ZM124.428 21.0474H127L123.78 24.0722L126.251 28.7316H123.706L122.126 25.5398L121.291 26.3421L120.98 28.7316H118.843L120.223 18.1427H122.361L121.601 23.9669L124.428 21.0474Z" fill="#1C1C1E"/>
<path fill-rule="evenodd" clip-rule="evenodd" d="M8.86944 16.092C14.7236 16.0158 17.9177 20.2953 17.8285 23.5982C17.7844 25.2346 17.1005 27.172 15.6367 28.6909C14.1679 30.2148 11.9242 31.3071 8.78372 31.2635C2.48687 31.1762 0.0913113 26.7011 0.00232257 24.0279C-0.0424569 22.6827 0.558353 20.724 1.97206 19.0909C3.39297 17.4494 5.63574 16.1356 8.86933 16.092L8.86944 16.092ZM8.87527 16.5318C14.4985 16.4587 17.4707 20.5517 17.3888 23.5863C17.3475 25.1186 16.7039 26.9496 15.3199 28.3856C13.9408 29.8166 11.8164 30.8657 8.78982 30.8237C2.75393 30.74 0.524025 26.4787 0.441952 24.0133C0.401201 22.7891 0.956416 20.9363 2.30464 19.3788C3.64565 17.8296 5.7707 16.5738 8.87516 16.5318" fill="#1C1C1E"/>
<path fill-rule="evenodd" clip-rule="evenodd" d="M12.0547 20.7582L14.7914 20.7777C14.6636 20.916 14.5377 21.055 14.415 21.1937C13.8387 21.8452 13.3336 22.4908 13.0479 23.0321C12.9467 23.2239 12.8688 23.4104 12.8263 23.5853C12.784 23.7591 12.7733 23.9361 12.8237 24.0993C12.9175 24.4026 13.1814 24.5605 13.536 24.6148C13.6024 24.625 13.6721 24.6316 13.7444 24.6347C13.7445 24.6347 13.7446 24.6348 13.7447 24.6348C13.8164 24.638 13.8861 24.641 13.9539 24.6438C14.6654 24.6729 15.1667 24.6765 15.5111 24.6705C15.5669 24.6696 15.6185 24.6684 15.6663 24.6669C15.7724 24.6638 15.8595 24.6598 15.93 24.6556L15.908 26.6326C15.8494 26.6317 15.7807 26.6306 15.7034 26.6295C15.6378 26.6285 15.5661 26.6274 15.4893 26.6262C15.2605 26.6228 14.9868 26.6188 14.6965 26.6148C13.922 26.6041 13.0278 26.5934 12.5549 26.5934C12.1142 26.5934 11.6497 26.4925 11.2779 26.3418C11.0922 26.2665 10.9357 26.1812 10.8192 26.0946C10.6991 26.0054 10.6393 25.928 10.6181 25.8751C10.579 25.7771 10.4759 25.7207 10.3724 25.7406C10.2688 25.7606 10.1939 25.8512 10.1939 25.9566V28.5633H7.46511V25.8711C7.46511 25.7691 7.39497 25.6805 7.2957 25.657C7.19643 25.6336 7.09407 25.6815 7.04845 25.7727C6.87628 26.1171 6.48106 26.3291 6.07767 26.4532C5.88217 26.5134 5.69805 26.5488 5.56246 26.569C5.49491 26.5791 5.44003 26.5854 5.40257 26.5891C5.38386 26.5909 5.36954 26.5921 5.36022 26.5928L5.35422 26.5933L5.35346 26.5933L1.72146 26.5914L1.72589 24.6356H3.90471C4.32267 24.6356 4.73129 24.4968 4.90464 24.1501C5.08141 23.7965 4.95019 23.3574 4.59029 22.9078C4.24592 22.4775 3.72515 21.849 3.29141 21.3292C3.24968 21.2792 3.20874 21.2302 3.16883 21.1825C3.03727 21.025 2.91687 20.8814 2.81596 20.7611L5.47121 20.7809C5.73377 20.9465 6.09459 21.2891 6.41084 21.6745C6.57668 21.8766 6.72461 22.0837 6.83507 22.2732C6.94825 22.4674 7.01142 22.6253 7.02676 22.7328C7.0428 22.8452 7.14185 22.9269 7.2553 22.9214C7.36875 22.9158 7.45929 22.8247 7.46422 22.7112C7.50731 21.7189 7.49614 20.5866 7.47437 19.7046C7.46616 19.3719 7.45643 19.0742 7.44749 18.8324C7.44456 18.7534 7.44172 18.6803 7.43905 18.6139C7.436 18.5382 7.43316 18.4711 7.43066 18.4139L10.1126 18.3854L10.194 22.7065C10.1959 22.8098 10.2695 22.8979 10.3709 22.9181C10.4722 22.9383 10.574 22.8852 10.6154 22.7905C10.9043 22.1302 11.2807 21.607 11.5855 21.2488C11.7376 21.07 11.8712 20.933 11.966 20.8414C12.0014 20.8073 12.0313 20.7795 12.0547 20.7582ZM10.5978 21.9118C10.823 21.5335 11.0605 21.2197 11.2665 20.9775C11.4286 20.787 11.5718 20.6401 11.6751 20.5403C11.7137 20.503 11.7467 20.4723 11.7731 20.4483C11.851 20.3776 11.9526 20.3387 12.0577 20.3395L14.7944 20.359C14.9602 20.3602 15.1096 20.4591 15.1756 20.6112C15.2415 20.7633 15.2115 20.94 15.099 21.0618C14.3725 21.8484 13.7369 22.6237 13.4182 23.2275C13.3266 23.4012 13.2647 23.5542 13.2331 23.6841C13.2013 23.8152 13.2034 23.9098 13.2238 23.9756C13.2439 24.0409 13.2809 24.087 13.3539 24.1266C13.4376 24.1721 13.5709 24.208 13.763 24.2164L13.7637 24.2165C14.7018 24.2591 15.2961 24.2589 15.654 24.2484C15.7563 24.2454 15.8391 24.2416 15.9051 24.2376C16.0211 24.2307 16.1347 24.2723 16.2188 24.3525C16.3029 24.4326 16.35 24.5441 16.3487 24.6603L16.3267 26.6373C16.3254 26.7487 16.2799 26.855 16.2001 26.9326C16.1203 27.0103 16.0128 27.053 15.9014 27.0513C15.8429 27.0504 15.7742 27.0493 15.697 27.0481C15.4359 27.0441 15.078 27.0388 14.6907 27.0334C13.9156 27.0227 13.0243 27.0121 12.5549 27.0121C12.0563 27.0121 11.5385 26.8993 11.1205 26.7298C10.9306 26.6528 10.7568 26.5622 10.6127 26.4618V28.5633C10.6127 28.7945 10.4252 28.982 10.1939 28.982H7.46511C7.23386 28.982 7.0464 28.7945 7.0464 28.5633V26.4232C6.78753 26.6367 6.47246 26.7698 6.2008 26.8534C5.98002 26.9213 5.77443 26.9607 5.62436 26.9831C5.5491 26.9944 5.48723 27.0015 5.44369 27.0058C5.42192 27.0079 5.40469 27.0094 5.3926 27.0103L5.39168 27.0104L5.38568 27.0108L5.38433 27.0109L5.38358 27.011C5.37348 27.0117 5.36336 27.0121 5.35324 27.0121L1.72124 27.0101C1.61006 27.0101 1.50347 26.9658 1.42497 26.8871C1.34647 26.8084 1.3025 26.7017 1.30275 26.5905L1.30718 24.6347C1.30771 24.4038 1.49501 24.2169 1.72589 24.2169H3.90471C4.26307 24.2169 4.46318 24.0967 4.53014 23.9628C4.594 23.8351 4.5921 23.5801 4.26339 23.1694C3.922 22.7428 3.40372 22.1173 2.96993 21.5975C2.79095 21.383 2.62655 21.1868 2.49522 21.0303C2.39026 20.9052 2.36758 20.7305 2.43714 20.5828C2.5067 20.435 2.65579 20.3412 2.81908 20.3424L5.47432 20.3622C5.55233 20.3628 5.62863 20.3851 5.69461 20.4267C6.01074 20.6262 6.40453 21.0067 6.73452 21.4089C6.85555 21.5564 6.96979 21.709 7.06976 21.8592C7.08155 21.1148 7.0715 20.3512 7.05579 19.7149C7.04496 19.276 7.03146 18.8985 7.02068 18.6307C7.01765 18.5555 7.01483 18.489 7.01235 18.4322C7.0074 18.3188 7.04865 18.2083 7.12666 18.126C7.20467 18.0436 7.31276 17.9964 7.42621 17.9952L10.1081 17.9667C10.338 17.9642 10.5269 18.1476 10.5312 18.3775L10.5978 21.9118Z" fill="#1C1C1E"/>
</svg>
