<svg width="98" height="48" viewBox="0 0 98 48" fill="none" xmlns="http://www.w3.org/2000/svg">
<path d="M54.3327 6.51156C54.738 7.30675 54.4999 8.34868 54.0769 9.06261L50.8037 16.2231L50.7754 16.2567L49.5923 8.99258C49.4973 8.29504 50.2638 7.99743 50.715 7.66228C50.692 7.55978 50.576 7.56483 50.503 7.5171L49.3971 7.50586L49.3635 7.47337C49.3698 6.57158 49.869 5.73885 50.715 5.3012C51.5987 4.80467 52.8435 4.93966 53.61 5.57642C53.9213 5.84641 54.1834 6.16012 54.3327 6.51156Z" fill="#1C1C1E"/>
<path d="M48.3023 6.26272C48.5698 6.7441 48.7244 7.29055 48.6303 7.89569L47.2956 16.2129C47.3029 16.223 47.2904 16.2343 47.2799 16.2392L46.9342 15.5701L43.589 8.306C43.2777 7.37067 43.566 6.39276 44.2667 5.72237C44.9727 5.02578 46.1341 4.83687 47.0575 5.2147C47.5463 5.4199 48.0131 5.79773 48.3023 6.26272Z" fill="#1C1C1E"/>
<path d="M59.1746 9.76424C59.6247 10.5106 59.5235 11.6399 59.023 12.3325C58.713 12.819 58.2011 13.0617 57.7677 13.3806L50.8361 18.0072H50.8203L50.8977 17.7859L54.5719 9.72166C55.1223 8.77109 56.173 8.28971 57.2843 8.43489C58.0456 8.57008 58.807 9.05136 59.1746 9.76424Z" fill="#1C1C1E"/>
<path d="M43.4282 9.72166L47.2517 18.0063H47.1902L39.4816 12.8403C38.6971 12.1975 38.3755 11.2348 38.6418 10.2619C38.8413 9.53275 39.4637 8.8514 40.2042 8.58113C41.4167 8.14957 42.7826 8.60857 43.4282 9.72166Z" fill="#1C1C1E"/>
<path d="M61.1861 15.6127C61.5704 16.4017 61.419 17.4823 60.8696 18.1534C60.3246 18.7964 59.5955 19.1477 58.7401 19.1253L50.5207 19.1305L57.4062 14.4723C58.079 14.0509 59.1015 13.9745 59.8357 14.3158C60.4027 14.5321 60.9365 15.0724 61.1861 15.6127Z" fill="#1C1C1E"/>
<path d="M36.8463 15.6127C36.4632 16.4017 36.6134 17.4823 37.1639 18.1534C37.709 18.7964 38.4359 19.1477 39.2924 19.1253L47.5118 19.1305L40.6261 14.4723C39.9535 14.0509 38.9311 13.9745 38.1979 14.3158C37.6306 14.5321 37.097 15.0724 36.8463 15.6127Z" fill="#1C1C1E"/>
<path d="M22.0869 23.9147C18.0932 23.9147 14.8473 27.0729 14.8473 30.9564C14.8473 34.8388 18.0932 37.999 22.0869 37.999C26.0808 37.999 29.3288 34.8388 29.3288 30.9564C29.3288 27.073 26.0808 23.9147 22.0869 23.9147ZM22.0869 36.6118C18.8796 36.6118 16.2697 34.0742 16.2697 30.9565C16.2697 27.8396 18.8796 25.3019 22.0869 25.3019C25.2943 25.3019 27.9043 27.8397 27.9043 30.9565C27.9043 34.0742 25.2943 36.6118 22.0869 36.6118Z" fill="#1C1C1E"/>
<path d="M84.5251 31.0457C84.1367 30.8476 81.7732 29.6646 81.4338 29.493C80.1941 28.8765 79.7544 28.3322 79.7544 27.4101C79.7544 26.1286 80.8365 25.3009 82.5146 25.3009C83.4996 25.3009 84.452 25.7223 85.0108 26.028C85.1122 26.0818 85.2323 26.1123 85.3575 26.1123C85.7482 26.1123 86.0688 25.8006 86.0688 25.4207C86.0688 25.1648 85.9245 24.9403 85.7127 24.8204C85.0088 24.4385 83.8087 23.9156 82.5146 23.9156C80.0489 23.9156 78.3287 25.3515 78.3287 27.4101C78.3287 29.2574 79.5778 30.1287 80.7999 30.736C81.1423 30.9056 83.533 32.1039 83.8912 32.2876C84.8353 32.768 85.3575 33.489 85.3575 34.3188C85.3575 35.4308 84.3885 36.6128 82.5952 36.6128C80.851 36.6128 79.4965 35.4754 79.1226 35.125L79.0107 35.0214L77.957 35.9557L78.0802 36.0755C78.548 36.5266 80.2588 37.999 82.5952 37.999C85.2146 37.999 86.7801 36.1273 86.7801 34.3188C86.7801 32.9682 85.9592 31.7747 84.5251 31.0457Z" fill="#1C1C1E"/>
<path d="M7.23984 25.3018C8.7949 25.3018 10.256 25.891 11.3526 26.9561C11.6137 27.209 12.1046 27.209 12.3615 26.9561C12.4973 26.8271 12.5693 26.6536 12.5693 26.4677C12.5693 26.2838 12.4973 26.1082 12.3615 25.9792L12.2738 25.8918C10.9181 24.6163 9.12909 23.9147 7.23984 23.9147C3.24806 23.9147 0 27.074 0 30.9553C0 34.8389 3.24806 37.999 7.23984 37.999C9.34728 37.999 11.246 37.1198 12.5693 35.7182L11.5614 34.7372C10.4961 35.8868 8.9546 36.6119 7.23974 36.6119C4.03342 36.6119 1.42347 34.0732 1.42347 30.9554C1.42357 27.8407 4.03352 25.3018 7.23984 25.3018Z" fill="#1C1C1E"/>
<path d="M56.3297 25.3018C57.8828 25.3018 59.3458 25.891 60.4424 26.9561C60.7024 27.209 61.1934 27.209 61.4503 26.9561C61.5861 26.8271 61.6613 26.6536 61.6613 26.4677C61.6613 26.2838 61.586 26.1082 61.4503 25.9792L61.3636 25.8918C60.0049 24.6163 58.218 23.9147 56.3297 23.9147C52.337 23.9147 49.0878 27.0739 49.0878 30.9552C49.0878 34.8388 52.337 37.999 56.3297 37.999C58.4361 37.999 60.3349 37.1197 61.6602 35.7181L60.6513 34.7371C59.586 35.8867 58.0423 36.6118 56.3297 36.6118C53.1223 36.6118 50.5113 34.0731 50.5113 30.9553C50.5113 27.8407 53.1223 25.3018 56.3297 25.3018Z" fill="#1C1C1E"/>
<path d="M44.0633 23.9147C43.7959 23.9147 43.5848 24.0822 43.4699 24.2985C43.3529 24.5147 39.2088 34.4822 39.2078 34.4822C39.2078 34.4822 35.0637 24.5146 34.9477 24.2985C34.8318 24.0821 34.6209 23.9147 34.3536 23.9147C34.0412 23.9147 33.8063 24.1381 33.7238 24.4195C33.6413 24.7027 31.3029 37.2474 31.3029 37.2474C31.2945 37.2882 31.2904 37.3308 31.2904 37.3744C31.2904 37.7195 31.5797 37.999 31.9327 37.999C32.246 37.999 32.5071 37.7817 32.5635 37.4943L34.5885 26.7612C34.5885 26.7612 38.4956 36.1467 38.6095 36.37C38.7244 36.5924 38.9374 36.7661 39.209 36.7661C39.4805 36.7661 39.6926 36.5924 39.8063 36.37C39.9213 36.1466 43.8283 26.7612 43.8283 26.7612L45.9327 37.9218H47.2405C47.2405 37.9218 44.7767 24.7026 44.6942 24.4195C44.6104 24.1381 44.3754 23.9147 44.0633 23.9147Z" fill="#1C1C1E"/>
<path d="M69.8096 23.9156C69.5391 23.9147 69.3294 24.0862 69.2113 24.3096C69.0942 24.5321 63.8484 37.1308 63.8484 37.1308C63.817 37.2048 63.7992 37.2872 63.7992 37.3745C63.7992 37.7196 64.0864 38 64.4415 38C64.712 38 64.9439 37.8355 65.0391 37.6029L67.0755 32.7316H72.5449L74.7174 37.9218H76.1053C76.1053 37.9218 70.522 24.532 70.4072 24.3095C70.2931 24.0862 70.0811 23.9147 69.8096 23.9156ZM67.6561 31.3452L69.8095 26.1964L71.9652 31.3452H67.6561Z" fill="#1C1C1E"/>
<path d="M97.2856 23.9897H89.2229C88.8302 23.9897 88.5116 24.3006 88.5116 24.6834C88.5116 25.0641 88.8302 25.3749 89.2229 25.3749H92.6025V37.9207H93.9081V25.375H97.2856C97.6784 25.375 98 25.0642 98 24.6835C98 24.3006 97.6784 23.9897 97.2856 23.9897Z" fill="#1C1C1E"/>
</svg>
