<svg width="97" height="48" viewBox="0 0 97 48" fill="none" xmlns="http://www.w3.org/2000/svg">
<path d="M16.9831 12H21.8024V35.5373H18.9687C17.8699 35.5373 17.0024 34.747 17.0024 33.7253V12H16.9831ZM36.5687 27.306C36.5687 24.7036 34.7566 22.7181 32.0771 22.7181C29.3205 22.7181 27.5855 24.7807 27.5855 27.306C27.5855 29.8313 29.3205 31.894 32.0771 31.894C34.7566 31.894 36.5687 29.9084 36.5687 27.306ZM36.4145 19.094H41.0024V35.5952H38.3229C37.3012 35.5952 36.4337 34.8048 36.4337 33.7831C35.2578 35.0554 33.6 36 31.2289 36C26.4867 36 22.8626 32.2795 22.8626 27.306C22.8626 22.3325 26.4867 18.612 31.2289 18.612C33.6771 18.612 35.3349 19.5566 36.4337 20.906C36.4145 20.906 36.4145 19.094 36.4145 19.094ZM42.7373 33.706V12H47.3253V35.5373H44.5687C43.547 35.5373 42.6795 34.747 42.6795 33.7253H42.7373V33.706ZM62.4771 27.306C62.4771 24.6265 60.5108 22.7181 57.9855 22.7181C55.4602 22.7181 53.5711 24.6072 53.5711 27.306C53.5711 30.0048 55.4602 31.894 57.9855 31.894C60.5108 31.894 62.4771 30.0048 62.4771 27.306ZM67.0458 27.306C67.0458 32.2795 63.1711 36 57.9663 36C52.7614 36 48.8867 32.2795 48.8867 27.306C48.8867 22.3325 52.7614 18.612 57.9663 18.612C63.1904 18.6313 67.0458 22.3325 67.0458 27.306ZM89.5614 18.6313C93.5904 18.6313 96.2699 21.3108 96.4241 25.2627V36H93.7446C92.7229 36 91.8554 35.2096 91.8554 34.188V26.7663C91.8554 24.3181 90.5831 22.9687 88.5398 22.9687C86.5735 22.9687 84.9157 24.241 84.9157 26.7663V36H82.159C81.1373 36 80.2699 35.2096 80.2699 34.188V26.7663C80.2699 24.3181 79.094 22.9687 76.9542 22.9687C74.9879 22.9687 73.3301 24.241 73.3301 26.7663V36H70.5349C69.5133 36 68.6458 35.2096 68.6458 34.188V19.094H73.1373V21.0602C74.4096 19.2482 76.2217 18.612 78.188 18.612C80.6361 18.612 82.6795 19.7108 83.7976 21.5422C85.0506 19.4217 87.3446 18.6313 89.5614 18.6313ZM16.2699 30.4675C16.2699 34.0145 13.3398 36 7.5759 35.9229C5.28193 35.8458 2.37108 35.2096 0 33.7831L1.58072 30.2361C2.75663 30.8723 5.0506 32.0482 7.65301 32.1253C10.1783 32.2024 11.5277 31.8169 11.5277 30.5446C11.5277 29.3687 9.86988 29.2723 7.65301 28.9639L6.63133 28.8096C1.58072 28.0964 0.327711 26.2072 0.404819 23.4506C0.404819 19.9036 3.79759 18.0723 7.82651 18.1687C10.9108 18.2458 13.5133 19.0361 15.8072 20.1349L14.9398 22.0241C14.5542 22.8916 13.5133 23.3735 12.5687 22.9687C11.2193 22.4096 9.56145 21.947 7.82651 21.947C6.01446 21.947 5.2241 22.506 5.2241 23.4506C5.2241 24.3952 6.16867 24.7229 7.7494 24.9542L9.81205 25.1855C13.5133 25.6482 16.2699 27.3831 16.2699 30.4675Z" fill="#1C1C1E"/>
</svg>
