<svg width="116" height="48" viewBox="0 0 116 48" fill="none" xmlns="http://www.w3.org/2000/svg">
<path d="M66.9306 15.6512L73.5462 13.1279L66.9306 10.5326V7L78.2617 11.686V14.5698L66.9306 19.2558V15.6512Z" fill="#1C1C1E"/>
<path d="M4.36353 38C1.97062 38 0 36.7744 0 34.0349V33.8907C0 30.5744 2.81518 29.4209 6.26377 29.4209H7.8825V28.7721C7.8825 27.4023 7.31946 26.6093 5.91187 26.6093C4.64504 26.6093 4.01163 27.3302 3.94125 28.3395H0.422277C0.703794 25.3116 3.02632 23.8698 6.12301 23.8698C9.29009 23.8698 11.6126 25.2395 11.6126 28.6279V37.7116H8.02326V36.1256C7.31946 37.1349 6.12301 38 4.36353 38ZM7.8825 33.2419V31.9442H6.40453C4.57466 31.9442 3.65973 32.4488 3.65973 33.6744V33.8186C3.65973 34.7558 4.22277 35.4047 5.4896 35.4047C6.75643 35.3326 7.8825 34.6116 7.8825 33.2419ZM19.9878 38C16.328 38 13.6536 35.693 13.6536 31.0791V30.8628C13.6536 26.2488 16.4688 23.7977 19.9878 23.7977C23.0141 23.7977 25.4774 25.3837 25.7589 28.9163H22.2399C22.0288 27.6186 21.325 26.7535 20.0581 26.7535C18.5098 26.7535 17.3837 28.0512 17.3837 30.7186V31.1512C17.3837 33.8907 18.369 35.1163 20.0581 35.1163C21.325 35.1163 22.2399 34.1791 22.451 32.6651H25.8293C25.6181 35.8372 23.5771 38 19.9878 38ZM33.7821 38C30.1224 38 27.448 35.693 27.448 31.0791V30.8628C27.448 26.2488 30.2632 23.7977 33.7821 23.7977C36.8084 23.7977 39.2717 25.3837 39.5532 28.9163H36.0343C35.8231 27.6186 35.1193 26.7535 33.8525 26.7535C32.3042 26.7535 31.1781 28.0512 31.1781 30.7186V31.1512C31.1781 33.8907 32.1634 35.1163 33.8525 35.1163C35.1193 35.1163 36.0343 34.1791 36.2454 32.6651H39.6236C39.4125 35.8372 37.3715 38 33.7821 38ZM47.6469 38C43.8464 38 41.2424 35.693 41.2424 31.1512V30.8628C41.2424 26.3209 43.9872 23.7977 47.5765 23.7977C50.8843 23.7977 53.6291 25.6721 53.6291 30.214V31.8721H44.9725C45.1132 34.3233 46.1689 35.2605 47.7173 35.2605C49.1249 35.2605 49.899 34.4674 50.1805 33.5302H53.6291C53.2069 36.0535 51.0955 38 47.6469 38ZM45.0428 29.3488H49.9694C49.899 27.3302 48.9841 26.4651 47.5061 26.4651C46.3801 26.5372 45.3244 27.186 45.0428 29.3488ZM55.8813 24.1581H59.6114V26.1767C60.2448 24.8791 61.582 23.8698 63.623 23.8698C66.0159 23.8698 67.6346 25.3837 67.6346 28.6279V37.7116H63.9045V29.2047C63.9045 27.6186 63.2711 26.8977 61.9339 26.8977C60.6671 26.8977 59.6114 27.6907 59.6114 29.4209V37.7116H55.8813V24.1581ZM74.4614 20.0488V24.1581H76.9951V26.9698H74.4614V33.386C74.4614 34.3953 74.8837 34.9 75.7987 34.9C76.3617 34.9 76.7136 34.8279 77.0655 34.6837V37.6395C76.6432 37.7837 75.869 37.9279 74.9541 37.9279C72.0686 37.9279 70.7313 36.5581 70.7313 33.8186V26.9698H69.183V24.1581H70.7313V21.6349L74.4614 20.0488ZM90.9302 37.7116H87.2705V35.693C86.6371 36.9907 85.3703 38 83.3996 38C81.0067 38 79.2473 36.486 79.2473 33.314V24.1581H82.9774V32.8093C82.9774 34.3953 83.6108 35.1163 84.8776 35.1163C86.1444 35.1163 87.2001 34.2512 87.2001 32.593V24.1581H90.9302V37.7116ZM93.675 24.1581H97.4051V26.6814C98.1793 24.8791 99.4462 24.014 101.417 24.014V27.7628C98.8831 27.7628 97.4051 28.5558 97.4051 30.7907V37.7837H93.675V24.1581ZM108.947 38C105.147 38 102.543 35.693 102.543 31.1512V30.8628C102.543 26.3209 105.288 23.7977 108.877 23.7977C112.185 23.7977 114.93 25.6721 114.93 30.214V31.8721H106.343C106.484 34.3233 107.54 35.2605 109.088 35.2605C110.496 35.2605 111.27 34.4674 111.551 33.5302H115C114.437 36.0535 112.396 38 108.947 38ZM106.273 29.3488H111.27C111.2 27.3302 110.285 26.4651 108.807 26.4651C107.681 26.5372 106.625 27.186 106.273 29.3488Z" fill="#1C1C1E"/>
</svg>
