<svg width="72" height="48" viewBox="0 0 72 48" fill="none" xmlns="http://www.w3.org/2000/svg">
<path d="M15.6313 24.9888C16.086 24.4851 16.284 23.8253 16.2742 23.0459C16.1899 16.1878 0 0.0604206 0 0.0604206C0.666125 0.021391 1.73559 -0.0139798 2.8686 0.00553498C14.4897 0.2019 27.7095 3.45104 31.6305 9.84199C32.5044 11.058 33.0385 12.1801 33.0385 13.768C33.0385 17.5551 28.9692 21.0635 24.8502 24.6147C20.6293 28.2538 16.3561 31.9379 16.3561 36.0132C16.3561 36.8986 16.5113 37.4951 16.6726 38C10.3035 36.6706 7.16847 33.0299 7.16847 30.376C7.16847 28.235 11.6038 26.5337 15.2287 25.1433L15.4118 25.0731C15.4854 25.0448 15.5585 25.0168 15.6313 24.9888Z" fill="#1C1C1E"/>
<path d="M70.4013 30.8797V32.1067C70.2681 32.0859 70.2522 32.0859 70.2216 32.0823C69.8036 32.0506 69.3489 32.1359 69.1118 32.1933C68.6107 32.3164 68.2037 32.4969 67.9067 32.747C67.9067 32.747 67.7698 32.8506 67.6708 32.9714V37.8805H66.4229V31.0309H67.6708V31.52C68.3626 31.1102 69.1192 30.8797 70.0273 30.8797H70.4013Z" fill="#1C1C1E"/>
<path fill-rule="evenodd" clip-rule="evenodd" d="M65.2508 33.8873V34.6691H60.2799C60.3471 36.1352 61.4545 36.8682 62.5484 36.8682C63.4052 36.8682 64.0248 36.6657 64.6922 36.1705L64.9672 35.9668V37.2889L64.8975 37.3389C64.328 37.7597 63.4712 38 62.5496 38C60.4767 38 59.0308 36.4925 59.0308 34.4545C59.0308 32.4165 60.4424 30.8785 62.3186 30.8785C64.1556 30.8797 65.2508 32.003 65.2508 33.8873ZM63.9943 33.5836C63.8941 32.5262 63.3318 32.0115 62.2783 32.0115C61.3567 32.0115 60.6612 32.5957 60.385 33.5836H63.9943Z" fill="#1C1C1E"/>
<path d="M55.0731 30.8797C54.506 30.8797 53.8252 31.0834 53.1884 31.4383V27.383H51.9393V37.8805H53.1872V32.9702C53.4255 32.4543 54.4828 32.0567 54.9961 32.0567C56.1181 32.0567 56.6633 32.5299 56.6633 33.5007V37.8817H57.9112V33.3214C57.9124 31.7005 56.9554 30.8797 55.0731 30.8797Z" fill="#1C1C1E"/>
<path fill-rule="evenodd" clip-rule="evenodd" d="M50.5997 33.0946V37.7207L50.4738 37.7548C49.9104 37.9085 49.1954 38 48.5586 38C45.9613 38 45.4174 36.8584 45.4174 35.9022C45.4174 34.5521 46.6457 33.7764 48.7847 33.7764H49.3518V33.1556C49.3518 32.1993 48.5891 32.0554 48.1357 32.0554C47.3608 32.0554 46.7875 32.2981 46.2852 32.5591L46.0346 32.6909V31.4554L46.1238 31.4066C46.7606 31.0675 47.5135 30.8797 48.2408 30.8797C49.8224 30.8797 50.5997 31.6773 50.5997 33.0946ZM49.3506 34.8484H48.8446C48.0306 34.8484 46.6641 34.9862 46.6641 35.9034C46.6641 36.7377 47.7164 36.9145 48.6013 36.9145C48.8323 36.9145 49.0976 36.8926 49.3506 36.8523V34.8484Z" fill="#1C1C1E"/>
<path d="M44.3308 33.319V37.8805H43.0829V33.4983C43.0829 32.5287 42.5378 32.0554 41.4158 32.0554C40.9012 32.0554 39.8452 32.453 39.6068 32.969V37.8805H38.3589V31.0309H39.6068V31.4371C40.2436 31.0834 40.9244 30.8797 41.4915 30.8797C43.3738 30.8797 44.3308 31.6993 44.3308 33.319Z" fill="#1C1C1E"/>
<path fill-rule="evenodd" clip-rule="evenodd" d="M37.0181 33.0946V37.7207L36.8922 37.7548C36.3288 37.9085 35.6138 38 34.977 38C32.3797 38 31.8358 36.8584 31.8358 35.9022C31.8358 34.5521 33.0642 33.7764 35.2031 33.7764H35.7702V33.1556C35.7702 32.1993 35.0075 32.0554 34.5541 32.0554C33.7792 32.0554 33.2059 32.2981 32.7036 32.5591L32.453 32.6909V31.4554L32.5423 31.4066C33.1791 31.0675 33.932 30.8797 34.6592 30.8797C36.242 30.8797 37.0181 31.6773 37.0181 33.0946ZM35.7702 34.8484H35.2642C34.4502 34.8484 33.0837 34.9862 33.0837 35.9034C33.0837 36.7377 34.1361 36.9145 35.021 36.9145C35.252 36.9145 35.5172 36.8926 35.7702 36.8523V34.8484Z" fill="#1C1C1E"/>
<path fill-rule="evenodd" clip-rule="evenodd" d="M29.5013 27.383V31.08C29.1239 30.9404 28.6266 30.8785 28.2424 30.8785C26.0106 30.8785 24.4522 32.3506 24.4522 34.4545C24.4522 36.5584 25.98 38 28.438 38C29.1762 38 29.9316 37.9463 30.6185 37.789L30.7505 37.7585V27.383H29.5013ZM29.5013 36.8133V32.2579C29.175 32.1079 28.7325 32.0249 28.24 32.0249C26.7036 32.0249 25.7124 32.947 25.7124 34.4545C25.7124 35.962 26.7574 36.8682 28.4355 36.8682C28.8706 36.8682 29.2068 36.8523 29.5001 36.8157V36.8133H29.5013Z" fill="#1C1C1E"/>
<path d="M71.3461 37.045H71.1395V37.8805H71.2642V37.1853H71.2667L71.5001 37.8805H71.6407L71.8729 37.1853H71.8753V37.8805H72V37.045H71.7959L71.5734 37.7317H71.5722L71.3461 37.045Z" fill="#1C1C1E"/>
<path d="M70.6543 37.1523H70.4013V37.0462H71.0356V37.1523H70.7814V37.8817H70.6543V37.1523Z" fill="#1C1C1E"/>
</svg>
