<svg width="112" height="48" viewBox="0 0 112 48" fill="none" xmlns="http://www.w3.org/2000/svg">
<g clip-path="url(#clip0_256_566)">
<path d="M12.9655 16.1379L6.48276 20.2759L12.9655 24.4138L6.48276 28.5517L0 24.3793L6.48276 20.2414L0 16.1379L6.48276 12L12.9655 16.1379ZM6.44828 29.8621L12.931 25.7241L19.4138 29.8621L12.931 34L6.44828 29.8621ZM12.9655 24.3793L19.4483 20.2414L12.9655 16.1379L19.4138 12L25.8966 16.1379L19.4138 20.2759L25.8966 24.4138L19.4138 28.5517L12.9655 24.3793Z" fill="#1C1C1E"/>
<path d="M30.9647 16.138H36.2061C39.5509 16.138 42.3095 18.069 42.3095 22.4828V23.4138C42.3095 27.8621 39.7233 29.8621 36.3095 29.8621H30.9647V16.138ZM33.8957 18.6207V27.3449H36.1371C38.0337 27.3449 39.3095 26.1035 39.3095 23.3449V22.6207C39.3095 19.8621 37.9647 18.6207 36.0337 18.6207H33.8957ZM43.8612 18.7587H46.2061L46.5854 21.3449C47.0337 19.5862 48.1716 18.6552 50.2406 18.6552H50.9647V21.6207H49.7578C47.3785 21.6207 46.7923 22.4483 46.7923 24.7931V29.8966H43.8957V18.7587H43.8612ZM51.5509 24.5518V24.2414C51.5509 20.5173 53.9302 18.4828 57.1716 18.4828C60.4819 18.4828 62.7923 20.5173 62.7923 24.2414V24.5518C62.7923 28.2069 60.5509 30.1725 57.1716 30.1725C53.5854 30.138 51.5509 28.2069 51.5509 24.5518ZM59.8268 24.5173V24.2414C59.8268 22.1725 58.7923 20.9311 57.1371 20.9311C55.5164 20.9311 54.4474 22.069 54.4474 24.2414V24.5173C54.4474 26.5173 55.4819 27.6552 57.1371 27.6552C58.7923 27.6207 59.8268 26.5173 59.8268 24.5173ZM64.3095 18.7587H66.7233L66.9992 20.8621C67.5854 19.4483 68.8268 18.4828 70.6543 18.4828C73.4819 18.4828 75.344 20.5173 75.344 24.2759V24.5862C75.344 28.2414 73.275 30.1725 70.6543 30.1725C68.8957 30.1725 67.6888 29.3794 67.1026 28.1035V33.7242H64.275L64.3095 18.7587ZM72.413 24.5173V24.2759C72.413 22.069 71.275 20.9656 69.7578 20.9656C68.1371 20.9656 67.0681 22.2069 67.0681 24.2759V24.4828C67.0681 26.4483 68.1026 27.6897 69.7233 27.6897C71.3785 27.6552 72.413 26.5862 72.413 24.5173ZM79.6199 27.8276L79.3785 29.8621H76.8957V15.0345H79.7233V20.7242C80.344 19.2759 81.5854 18.4828 83.344 18.4828C85.9992 18.5173 87.9647 20.3449 87.9647 24.0345V24.3794C87.9647 28.069 86.1026 30.1725 83.275 30.1725C81.413 30.138 80.2061 29.2759 79.6199 27.8276ZM84.9992 24.3794V24.1035C84.9992 22.069 83.8957 20.9311 82.344 20.9311C80.7578 20.9311 79.6544 22.2069 79.6544 24.138V24.3794C79.6544 26.4483 80.7233 27.6552 82.3095 27.6552C83.9992 27.6552 84.9992 26.5862 84.9992 24.3794ZM89.2061 24.5518V24.2414C89.2061 20.5173 91.5854 18.4828 94.8268 18.4828C98.1371 18.4828 100.447 20.5173 100.447 24.2414V24.5518C100.447 28.2069 98.1716 30.1725 94.8268 30.1725C91.2406 30.138 89.2061 28.2069 89.2061 24.5518ZM97.5164 24.5173V24.2414C97.5164 22.1725 96.4819 20.9311 94.8268 20.9311C93.2061 20.9311 92.1371 22.069 92.1371 24.2414V24.5173C92.1371 26.5173 93.1716 27.6552 94.8268 27.6552C96.4819 27.6207 97.5164 26.5173 97.5164 24.5173ZM104.241 24.1035L100.344 18.7587H103.689L105.93 22.1035L108.206 18.7587H111.516L107.551 24.069L111.723 29.8621H108.447L105.896 26.1725L103.413 29.8621H99.9992L104.241 24.1035Z" fill="#1C1C1E"/>
</g>
<defs>
<clipPath id="clip0_256_566">
<rect width="112" height="48" fill="white"/>
</clipPath>
</defs>
</svg>
