<svg width="119" height="48" viewBox="0 0 119 48" fill="none" xmlns="http://www.w3.org/2000/svg">
<path d="M100.668 30.7244C100.933 30.7244 101.349 30.6682 101.557 30.5921V29.3052C101.292 29.3614 101.065 29.3805 100.857 29.3805C100.175 29.3805 99.8537 29.0215 99.8537 27.9612V16.3971H96.9391V17.6848H98.2641V28.0365C98.2641 29.7973 98.9646 30.7244 100.668 30.7244ZM104.604 28.0563V22.0749H106.591V20.788H104.604V18.2902H103.015V20.788H101.5V22.0749H103.015V28.1316C103.015 29.8726 103.791 30.7244 105.627 30.7244C105.91 30.7244 106.364 30.6682 106.591 30.5921V29.3052C106.288 29.3614 106.024 29.3805 105.778 29.3805C104.982 29.3805 104.604 29.0968 104.604 28.0563ZM78.9784 21.8293C81.0601 21.8293 82.1386 23.3056 82.309 24.9523H75.4774C75.6668 23.1543 76.8776 21.8293 78.9784 21.8293ZM86.6809 25.6901C86.6809 23.457 88.101 21.8483 90.1067 21.8483C92.1321 21.8483 93.5134 23.4942 93.5134 25.6901C93.5134 27.8851 92.1321 29.5326 90.1067 29.5326C88.101 29.5326 86.6809 27.9232 86.6809 25.6901ZM111.721 29.3052H110.396V24.9143C110.396 22.8706 111.437 21.8483 113.272 21.8483C114.919 21.8483 115.979 22.8706 115.979 24.9143V29.3052H114.654V30.5921H118.894V29.3052H117.569V24.9143C117.569 22.4727 116.111 20.5043 113.461 20.5043C112.08 20.5043 111.058 21.0345 110.396 21.8864V16.3971H107.481V17.6848H108.806V29.3052H107.481V30.5921H111.721V29.3052ZM63.0052 22.3214V17.722H64.4244V16.3971H59.9392V17.722H61.3585V29.2671H59.9392V30.5921H64.4244V29.2671H63.0052V23.6083H70.1213V29.2671H68.702V30.5921H73.1872V29.2671H71.768V17.722H73.1872V16.3971H68.702V17.722H70.1213V22.3214H63.0052ZM83.672 27.9612H82.0824C81.5142 28.9454 80.4928 29.5508 79.0355 29.5508C76.8206 29.5508 75.6288 28.2068 75.4774 26.2202H83.8995V25.5197C83.8995 22.5298 81.9881 20.5043 78.9784 20.5043C75.9505 20.5043 73.8497 22.6431 73.8497 25.6901C73.8497 28.756 75.9505 30.8758 78.9784 30.8758C81.1925 30.8758 82.8962 29.7593 83.672 27.9612ZM93.4571 30.5921H96.3717V29.3052H95.0467V22.0749H96.3717V20.788H93.4571V22.2453C92.6243 21.1668 91.3745 20.5043 89.8982 20.5043C87.1168 20.5043 85.0541 22.7374 85.0541 25.6901C85.0541 28.6427 87.1168 30.8758 89.8982 30.8758C91.3745 30.8758 92.6243 30.2133 93.4571 29.1348V30.5921Z" fill="#1C1C1E"/>
<path d="M5.0716 16.019C4.53401 16.019 3.99724 16.2241 3.58618 16.636L0.613688 19.6085C-0.205113 20.4273 -0.205113 21.7597 0.616996 22.581L9.00598 30.97L17.395 22.581C18.2163 21.7606 18.2146 20.429 17.3936 19.6085L14.4236 16.6377C14.0126 16.225 13.4758 16.0198 12.939 16.0198C12.3998 16.0198 11.8614 16.2266 11.4487 16.6402L9.00632 19.0833L6.55984 16.6368C6.14961 16.225 5.61086 16.019 5.0716 16.019ZM32.7234 16.397H37.3608L39.7453 25.5576L42.3001 16.397H46.7663L41.9974 30.573H37.4741L32.7234 16.397ZM33.6886 25.0655C33.443 28.794 30.9824 30.97 26.9132 30.97C22.39 30.97 19.6267 28.0934 19.6267 23.4949C19.6267 18.8575 22.409 16 26.819 16C30.9254 16 33.3479 18.0817 33.6134 21.7531H29.2787C29.1463 20.3148 28.3325 19.5581 26.8752 19.5581C25.0962 19.5581 24.2071 20.864 24.2071 23.4949C24.2071 26.0688 25.1723 27.4119 27.0075 27.4119C28.3896 27.4119 29.2596 26.5791 29.3928 25.0655H33.6886ZM50.4004 26.144C50.6279 27.2043 51.2333 27.5831 52.4822 27.5831C53.5797 27.5831 54.1859 27.1853 54.1859 26.5601C54.1859 25.671 53.3721 25.5957 51.6874 25.1598C49.7189 24.6495 48.451 24.2136 47.8646 23.7968C46.7663 23.0218 46.2369 21.9235 46.2369 20.5233C46.2369 17.779 48.394 16 52.1604 16C55.8136 16 57.9706 17.6087 58.2171 20.467H53.9204C53.7691 19.6151 53.1827 19.2173 52.0852 19.2173C51.12 19.2173 50.6461 19.539 50.6461 20.1825C50.6461 20.9401 51.3846 21.0724 52.7477 21.4314C54.5077 21.8863 55.9079 22.17 56.797 22.7754C58.0467 23.6082 58.6141 24.6305 58.6141 26.0878C58.6141 29.1719 56.4 30.97 52.2928 30.97C48.4891 30.97 46.2551 29.1719 45.9715 26.144H50.4004Z" fill="#1C1C1E"/>
</svg>
