<svg width="97" height="48" viewBox="0 0 97 48" fill="none" xmlns="http://www.w3.org/2000/svg">
<path fill-rule="evenodd" clip-rule="evenodd" d="M12.2507 30.329C13.8338 28.7365 14.6252 26.4675 14.6252 23.523C14.6252 20.7867 13.8729 18.6957 12.3688 17.2471C10.8641 15.7992 8.72878 15.0748 5.96297 15.0748H0V32.7189H5.57378C8.44239 32.7189 10.6677 31.9223 12.2507 30.329ZM8.85659 20.0947C9.4812 20.8759 9.79345 22.075 9.79345 23.6913C9.79345 25.4212 9.46272 26.7067 8.80344 27.5469C8.14329 28.3885 7.10666 28.808 5.69202 28.808H4.65539V18.9245H6.01014C7.28393 18.9245 8.23111 19.3143 8.85659 20.0947Z" fill="#1C1C1E"/>
<path d="M34.4999 32.7188H30.0647V15.0007H34.4999V32.7188Z" fill="#1C1C1E"/>
<path fill-rule="evenodd" clip-rule="evenodd" d="M47.3602 31.1446C48.4914 29.9412 49.0555 28.2621 49.0555 26.1098C49.0555 24.7388 48.7935 23.5397 48.2678 22.5149C47.7428 21.4886 46.9955 20.7006 46.0276 20.1507C45.0604 19.6006 43.944 19.3252 42.682 19.3252C40.6398 19.3252 39.0538 19.9195 37.9227 21.1083C36.7917 22.297 36.2267 23.9642 36.2267 26.1099C36.2267 28.2082 36.8034 29.8725 37.9574 31.104C39.11 32.3356 40.6628 32.9514 42.6134 32.9514C44.6476 32.9514 46.2299 32.3489 47.3602 31.1446ZM41.1731 28.6933C40.8783 28.1012 40.7307 27.2395 40.7307 26.1098C40.7307 24.9787 40.8784 24.1288 41.1729 23.5596C41.4683 22.9911 41.9548 22.7053 42.6356 22.7053C43.3319 22.7053 43.8229 22.9924 44.1109 23.5663C44.398 24.1384 44.5413 24.986 44.5413 26.1098C44.5413 27.2395 44.4002 28.1012 44.1168 28.6933C43.8332 29.2863 43.3466 29.5823 42.6584 29.5823C41.963 29.5823 41.4683 29.2863 41.1731 28.6933Z" fill="#1C1C1E"/>
<path d="M55.2529 32.7188H50.817V19.5578H55.2529V32.7188Z" fill="#1C1C1E"/>
<path d="M55.2528 17.9658H50.8167V15H55.2528V17.9658Z" fill="#1C1C1E"/>
<path d="M66.3842 28.9079C65.5521 29.2098 64.8389 29.362 64.24 29.362C63.4397 29.362 63.0387 28.936 63.0387 28.0839V22.9612H65.8689V19.5589H63.0387V15.4205L58.5688 16.1979V19.559H57.0152V22.9611H58.5688V28.3867C58.5688 29.935 58.898 31.0824 59.5544 31.8295C60.2138 32.5768 61.2873 32.9511 62.7766 32.9511C63.5024 32.9511 64.1367 32.895 64.6771 32.782C65.2175 32.6705 65.7861 32.4822 66.3842 32.2194V28.9079Z" fill="#1C1C1E"/>
<path d="M76.6507 28.9079C75.8186 29.2098 75.1053 29.362 74.5065 29.362C73.7054 29.362 73.3045 28.936 73.3045 28.0839V22.9612H76.1361V19.5589H73.3044V15.4205L68.8353 16.1471V19.559H67.2811V22.9611H68.8353V28.3867C68.8353 29.935 69.1646 31.0824 69.8224 31.8295C70.4804 32.5768 71.554 32.9511 73.0431 32.9511C73.7705 32.9511 74.4024 32.895 74.9436 32.782C75.4841 32.6705 76.0534 32.4822 76.6507 32.2194V28.9079Z" fill="#1C1C1E"/>
<path fill-rule="evenodd" clip-rule="evenodd" d="M84.0178 19.3255C85.9529 19.3255 87.4487 19.8432 88.5032 20.8768C89.5583 21.9097 90.0854 23.399 90.0854 25.3431V27.3639H82.1571C82.1873 28.0993 82.4509 28.6767 82.9456 29.0954C83.4403 29.5133 84.1152 29.7222 84.9701 29.7222C85.7499 29.7222 86.4661 29.6462 87.1188 29.4947C87.5707 29.3907 88.0491 29.2328 88.5519 29.0274L89.2334 31.9934C88.5416 32.3537 87.8283 32.6033 87.0914 32.7413C86.3502 32.8809 85.4656 32.951 84.4377 32.951C82.2973 32.951 80.6353 32.3677 79.4517 31.2026C78.2689 30.0375 77.676 28.3776 77.676 26.2255C77.676 24.0029 78.2246 22.2974 79.321 21.1086C80.4182 19.9199 81.9835 19.3255 84.0178 19.3255ZM82.8658 22.9206C82.5145 23.258 82.3084 23.7859 82.2479 24.5065H86.0584C86.0444 23.8716 85.8687 23.3643 85.5313 22.9855C85.1961 22.6045 84.7442 22.4155 84.1757 22.4155C83.6544 22.4155 83.2188 22.5839 82.8658 22.9206Z" fill="#1C1C1E"/>
<path fill-rule="evenodd" clip-rule="evenodd" d="M22.2818 19.3255C24.2177 19.3255 25.7129 19.8432 26.768 20.8768C27.8225 21.9097 28.3496 23.399 28.3496 25.3431V27.3639H20.4213C20.4515 28.0993 20.7143 28.6767 21.2098 29.0954C21.7045 29.5133 22.38 29.7222 23.2342 29.7222C24.0141 29.7222 24.7295 29.6462 25.3836 29.4947C25.8347 29.3907 26.3132 29.2328 26.816 29.0274L27.4983 31.9934C26.8057 32.3537 26.0924 32.6033 25.3555 32.7413C24.6143 32.8809 23.7297 32.951 22.702 32.951C20.5615 32.951 18.8995 32.3677 17.7167 31.2026C16.5323 30.0375 15.9402 28.3776 15.9402 26.2255C15.9402 24.0029 16.4895 22.2974 17.5859 21.1086C18.6824 19.9199 20.2469 19.3255 22.2818 19.3255ZM21.13 22.9206C20.7786 23.258 20.5726 23.7859 20.512 24.5065H24.3234C24.3078 23.8716 24.1328 23.3643 23.7955 22.9855C23.4595 22.6045 23.0076 22.4155 22.4406 22.4155C21.9185 22.4155 21.4821 22.5839 21.13 22.9206Z" fill="#1C1C1E"/>
<path d="M93.7254 27.8973C92.3174 27.8973 91.1736 29.0402 91.1736 30.449C91.1736 31.8577 92.3174 33 93.7254 33C95.1342 33 96.2764 31.8577 96.2764 30.449C96.2764 29.0402 95.1342 27.8973 93.7254 27.8973Z" fill="#1C1C1E"/>
</svg>
