<svg width="100" height="48" viewBox="0 0 100 48" fill="none" xmlns="http://www.w3.org/2000/svg">
<path fill-rule="evenodd" clip-rule="evenodd" d="M0.247859 17.7371C0.247859 17.7371 3.99932 10 12.6917 10C19.5608 10 27.0716 14.8926 27.0716 24.5777C27.0716 32.0037 20.9857 38 13.6185 38C5.50958 38 0.000788457 31.481 0.000788457 24.5607C-0.0377858 21.1707 1.35186 18.5277 1.35186 18.5277L0.247859 17.7371ZM12.7669 12.3609C19.5579 12.3609 24.8279 17.8336 24.8279 24.1958C24.8279 30.9402 19.7557 35.6306 13.8445 35.6306C9.49444 35.6306 5.56964 32.3177 5.56964 27.7755C5.56964 25.152 6.96417 23.323 8.52667 22.3482L8.75518 22.5964C8.32745 22.9309 7.1087 24.8895 7.1087 26.8146C7.1087 30.3883 9.91094 32.8634 13.4422 32.8634C17.9398 32.8634 20.9393 29.0272 20.9393 24.5729C20.9393 19.3904 16.365 14.9906 10.8597 14.9906C7.81475 14.9906 5.23028 16.3001 3.74542 17.4561L3.51397 17.2469C5.45684 14.2514 8.82159 12.3609 12.7669 12.3609ZM10.7405 17.3187C14.2532 17.3187 17.6834 19.6428 18.5399 22.9418L18.2283 23.0598C16.6907 21.0298 14.1722 19.3475 11.1976 19.3475C5.72442 19.3475 2.84991 24.321 3.27178 28.4749L2.95001 28.5929C2.95001 28.5929 2.34503 27.259 2.34503 25.6773C2.34503 21.097 6.10675 17.3187 10.7405 17.3187ZM16.056 26.0155C16.056 24.4152 14.7254 23.067 13.0623 23.067C11.3768 23.067 9.50079 24.5255 9.50079 26.7063C9.50079 28.8228 11.2254 30.3967 13.1756 30.3967C15.2142 30.3967 16.2127 28.8288 16.2127 28.8288L15.2054 28.1246C15.2054 28.1246 16.056 27.3398 16.056 26.0155Z" fill="#1C1C1E"/>
<path d="M32.9998 25.5152V18.1175H35.6551V25.3125C35.6551 26.7114 36.3899 27.9176 38.0579 27.9176C39.5794 27.9176 40.4315 26.8688 40.4315 25.1774V18.1175H43.0862V25.3125C43.0862 28.4144 41.1663 30.4334 38.0296 30.4334C35.0472 30.4334 32.9998 28.5189 32.9998 25.5152Z" fill="#1C1C1E"/>
<path fill-rule="evenodd" clip-rule="evenodd" d="M44.3773 30.3128V18.2197H48.6058C50.3514 18.2197 52.3768 19.0526 52.3768 21.167C52.3768 23.2827 50.7742 23.7278 50.7742 23.7278C50.7742 23.7278 52.9383 24.276 52.9383 26.749C52.9383 29.1182 50.9481 30.3128 48.6058 30.3128H44.3773ZM48.3358 20.5167H47.0521V23.0839H48.4031C49.3128 23.0839 49.7967 22.5328 49.7967 21.8024C49.7967 20.9859 49.2264 20.5167 48.3358 20.5167ZM48.471 24.9756H47.0521V27.9883H48.6058C49.6692 27.9883 50.2674 27.4304 50.2674 26.4787C50.2674 25.6609 49.805 24.9756 48.471 24.9756Z" fill="#1C1C1E"/>
<path d="M56.6116 18.2188H53.9432V30.3119H56.6116V18.2188Z" fill="#1C1C1E"/>
<path d="M80.3924 30.3119H83.0608V25.5152H88.263V23.4885H83.0608V20.7186H88.7698V18.2188H80.3924V30.3119Z" fill="#1C1C1E"/>
<path d="M89.7493 20.7186V18.2188H99.2752V20.7186H95.8973V30.3119H93.1946V20.7186H89.7493Z" fill="#1C1C1E"/>
<path d="M57.5384 27.8408L59.658 26.2908C59.658 26.2908 60.2747 28.0552 62.0496 28.0552C62.9451 28.0613 63.5203 27.5251 63.5203 26.7953C63.5203 25.8868 62.5516 25.5178 61.428 25.0899C59.8768 24.4992 58.0311 23.7961 58.0311 21.4065C58.0311 19.6794 59.4168 18.0056 62.0257 18.0056C65.2005 18.0056 66.0286 20.2134 66.0286 20.2134L63.908 21.7016C63.908 21.7016 63.3602 20.288 61.9192 20.288C61.0208 20.288 60.5345 20.7714 60.5345 21.3186C60.5345 22.187 61.5208 22.5432 62.6692 22.958C64.2708 23.5364 66.1883 24.229 66.1883 26.5838C66.1883 29.0928 64.3885 30.52 61.9432 30.52C58.2708 30.52 57.5384 27.8408 57.5384 27.8408Z" fill="#1C1C1E"/>
<path fill-rule="evenodd" clip-rule="evenodd" d="M68.5359 19.7059C68.5359 19.7059 69.9363 18 73.0789 18C76.763 18 79.3475 20.7348 79.3475 24.2639C79.3475 27.5735 77.0838 30.5173 73.094 30.5173C69.6605 30.5173 66.908 28.2252 66.908 24.6566C66.908 21.5553 68.9412 20.1112 68.9412 20.1112L68.5359 19.7059ZM76.6492 24.2534C76.6492 22.1388 75.2669 20.5102 73.136 20.5102C71.3279 20.5102 70.3939 21.5637 70.3939 21.5637L70.8328 22.0028C70.8328 22.0028 69.6209 22.7827 69.6209 24.5722C69.6209 26.5384 71.0149 28.0198 73.136 28.0198C75.2835 28.0198 76.6492 26.3461 76.6492 24.2534Z" fill="#1C1C1E"/>
</svg>
