<svg width="36" height="48" viewBox="0 0 36 48" fill="none" xmlns="http://www.w3.org/2000/svg">
<path d="M0 6H36V42H0V6ZM6.2352 27.276H4.6296V25.0224H2.7V31.2576H4.6296V29.004H6.2352V31.2576H8.2296V25.0224H6.2352V27.276ZM14.1408 29.976C14.3352 29.5872 14.4 29.1408 14.4 28.752V27.7872H13.0464V28.6872L11.5704 27.0816C11.4408 26.8872 11.3112 26.7576 11.3112 26.5704C11.3112 26.3112 11.5056 26.1816 11.7648 26.1816C12.024 26.1816 12.2184 26.376 12.2184 26.628V26.952H13.6944V26.5632C13.6944 25.5984 12.8592 24.9576 11.7 24.9576C10.476 24.9576 9.6408 25.5984 9.6408 26.5632C9.6408 26.8224 9.7056 27.2688 10.152 27.6576C9.576 27.9168 8.9928 28.4928 8.9928 29.3928C8.9928 30.6168 9.9576 31.452 11.6928 31.452C12.2688 31.452 12.852 31.2576 13.2336 30.9984L13.4928 31.3224H15.228L14.1408 29.976ZM11.7648 30.1056C11.3112 30.1056 10.7352 29.8464 10.7352 29.2704C10.7352 28.9464 10.9296 28.6944 11.1888 28.5648C11.1888 28.5648 12.2184 29.724 12.4128 29.9112C12.276 30.0408 12.024 30.1056 11.7648 30.1056ZM17.7408 29.6592H18.3168L19.2816 31.2648H21.5352L20.3112 29.2704C20.952 28.8816 21.4056 28.176 21.4056 27.276C21.4056 25.9224 20.5704 24.9648 18.9648 24.9648H15.8112V31.2H17.7408V29.6592ZM17.7408 26.5704H18.7056C19.1592 26.5704 19.4112 26.8944 19.4112 27.3408C19.4112 27.7944 19.152 28.1112 18.7056 28.1112H17.7408V26.5704ZM6.9408 36.024C7.452 35.7648 7.776 35.2536 7.776 34.6128C7.776 33.648 7.0704 33.0072 5.9112 33.0072H2.7V39.2424H5.976C7.3872 39.2424 8.1648 38.5368 8.1648 37.4424C8.1648 36.7296 7.7112 36.2112 6.9408 36.024ZM4.5648 34.476H5.4648C5.724 34.476 5.9184 34.6704 5.9184 34.9296C5.9184 35.2536 5.724 35.4408 5.4648 35.4408H4.5648V34.476ZM5.8536 37.824H4.5648V36.7944H5.8536C6.1776 36.7944 6.3648 37.0536 6.3648 37.3056C6.3648 37.5648 6.1704 37.824 5.8536 37.824ZM10.9296 33H9V39.2352H13.4352V37.6296H10.9296V33ZM16.9704 32.8704C15.0408 32.8704 14.0112 34.0296 14.0112 35.7V36.4704C14.0112 38.1408 15.0408 39.3 16.9704 39.3C18.9 39.3 19.9296 38.1408 19.9296 36.4704V35.7C19.9296 34.0296 18.9 32.8704 16.9704 32.8704ZM18 36.6648C18 37.3704 17.6112 37.7592 16.9704 37.7592C16.3296 37.7592 15.9408 37.3704 15.9408 36.6648V35.6352C15.9408 34.9296 16.3296 34.5408 16.9704 34.5408C17.6112 34.5408 18 34.9296 18 35.6352V36.6648ZM23.5296 34.5408C24.2352 34.5408 24.4944 34.9944 24.4944 35.4408H26.3592C26.2944 34.0296 25.3296 32.8704 23.5944 32.8704C21.6 32.8704 20.6352 34.0296 20.6352 35.7V36.5352C20.6352 38.2056 21.6 39.3648 23.5944 39.3648C25.3296 39.3648 26.3592 38.2056 26.3592 36.7944H24.4944C24.4296 37.248 24.2352 37.6944 23.5296 37.6944C22.8888 37.6944 22.5648 37.2408 22.5648 36.6V35.6352C22.5648 34.9296 22.8888 34.5408 23.5296 34.5408ZM32.976 33H30.7872L29.4984 35.1888H29.376V33H27.4464V39.2352H29.376V36.6648H29.5056L30.7944 39.2352H33.1056L31.3056 35.8296L32.976 33ZM33.876 33.1944H33.6816V33.648H33.8112V33.5184L33.876 33.648H34.0704L34.0056 33.5184C34.0056 33.4536 34.0704 33.3888 34.0704 33.324C34.0704 33.1944 34.0056 33.1944 33.876 33.1944ZM33.876 33.3888C33.876 33.324 33.876 33.324 33.876 33.3888V33.3888ZM33.8112 32.8704C33.4872 32.8704 33.3 33.1296 33.3 33.3816C33.3 33.6408 33.4944 33.8928 33.8112 33.8928C34.128 33.8928 34.3224 33.6336 34.3224 33.3816C34.3944 33.1296 34.1352 32.8704 33.8112 32.8704ZM33.8112 33.7704C33.552 33.7704 33.4224 33.576 33.4224 33.3816C33.4224 33.1224 33.552 32.9928 33.8112 32.9928C34.0704 32.9928 34.2 33.1872 34.2 33.3816C34.2648 33.6408 34.0704 33.7704 33.8112 33.7704Z" fill="#1C1C1E"/>
</svg>
