<svg width="92" height="48" viewBox="0 0 92 48" fill="none" xmlns="http://www.w3.org/2000/svg">
<path fill-rule="evenodd" clip-rule="evenodd" d="M15.8133 26.3327L17.2661 28.0276C17.2883 28.052 17.3013 28.0834 17.3029 28.1163C17.3045 28.1493 17.2946 28.1818 17.2748 28.2083C17.2397 28.2662 17.1731 28.2943 17.1099 28.282L14.9167 27.8714C14.8904 27.8679 14.8641 27.8574 14.8395 27.8433C14.7658 27.7995 14.7202 27.7258 14.715 27.6451C14.6939 27.4012 14.5588 27.1696 14.3307 27.038C14.1289 26.9205 13.8938 26.9064 13.6885 26.9784C13.4211 27.0724 13.1365 27.1074 12.8542 27.0811C12.572 27.0547 12.2987 26.9676 12.0533 26.8257L11.4041 26.452V30.7208H10.4883V25.9239L9.98998 25.6361L9.48993 25.9239V30.7208H8.57407V26.452L7.92313 26.8257C7.4073 27.1257 6.81075 27.1626 6.28965 26.9784C6.08437 26.9064 5.85102 26.9222 5.64749 27.038C5.4194 27.1696 5.28255 27.4012 5.26325 27.6451C5.25623 27.7258 5.21237 27.7995 5.13868 27.8433C5.11411 27.8574 5.08779 27.8661 5.06148 27.8714L2.8683 28.282C2.80514 28.2943 2.73847 28.2662 2.70513 28.2083C2.67004 28.1469 2.68056 28.0767 2.72267 28.0276L4.17543 26.3327C4.19298 26.3116 4.21403 26.2941 4.2386 26.28C4.31229 26.2379 4.40001 26.2362 4.47195 26.2713C4.69478 26.3765 4.96147 26.3748 5.19131 26.2432C5.28813 26.1879 5.37172 26.1122 5.43626 26.0213C5.50081 25.9304 5.54475 25.8265 5.56503 25.7168C5.66855 25.1729 5.99665 24.6764 6.51423 24.3781L7.16517 24.0027L3.46835 21.8691L3.92629 21.0761L8.08104 23.4745L8.57933 23.1868V22.6095L4.42458 20.2111L4.88251 19.418L8.57933 21.5516V20.8006C8.57933 20.2041 8.84602 19.6689 9.26535 19.3093C9.43028 19.1689 9.53555 18.9584 9.53555 18.7232C9.53555 18.4601 9.40221 18.225 9.20044 18.0863C9.15519 18.0555 9.12139 18.0106 9.10426 17.9585C9.08713 17.9065 9.08764 17.8503 9.10569 17.7986L9.84786 15.6932C9.86716 15.6317 9.92506 15.5879 9.99349 15.5879C10.0619 15.5879 10.1198 15.6317 10.1409 15.6932L10.883 17.7986C10.8901 17.8232 10.8953 17.8512 10.8953 17.8793C10.8953 17.9653 10.8532 18.0407 10.7865 18.0863C10.6891 18.1535 10.6085 18.2422 10.5508 18.3455C10.4931 18.4489 10.4599 18.5641 10.4538 18.6822C10.4477 18.8004 10.4688 18.9184 10.5156 19.0271C10.5623 19.1359 10.6334 19.2324 10.7234 19.3093C11.1427 19.6689 11.4094 20.2041 11.4094 20.8006V21.5516L15.1062 19.418L15.5642 20.2111L11.4112 22.6095V23.1868L11.9112 23.4745L16.0642 21.0761L16.5221 21.8691L12.8253 24.0027L13.4762 24.3781C13.9938 24.6746 14.3237 25.1729 14.4255 25.7168C14.4462 25.8263 14.4903 25.93 14.5548 26.0208C14.6193 26.1117 14.7027 26.1875 14.7992 26.2432C15.0273 26.3748 15.2957 26.3765 15.5168 26.2713C15.5887 26.2362 15.6764 26.2379 15.7501 26.28C15.7747 26.2941 15.7958 26.3116 15.8133 26.3327ZM13.1862 26.0616C13.2383 26.0217 13.282 25.9719 13.3148 25.9151C13.4517 25.6765 13.371 25.3712 13.1324 25.2326L11.913 24.529L11.4129 24.8168V25.3922L12.6323 26.0976C12.6891 26.1304 12.7518 26.1517 12.8169 26.1603C12.8819 26.1689 12.948 26.1647 13.0114 26.1477C13.0747 26.1308 13.1342 26.1015 13.1862 26.0616ZM9.99875 24.6641L10.5725 24.3325V23.6693L9.99875 23.3377L9.42502 23.6693V24.3325L9.99875 24.6641ZM9.997 20.1707C9.72153 20.1707 9.49871 20.3953 9.49871 20.6708V22.0797L9.99875 22.3674L10.497 22.0797V20.6708C10.497 20.3936 10.2725 20.1707 9.997 20.1707ZM7.36519 26.0976L8.58459 25.394H8.58284V24.8168L8.08455 24.529L6.86514 25.2326C6.80835 25.2654 6.75857 25.3091 6.71867 25.3612C6.67876 25.4133 6.6495 25.4727 6.63255 25.5361C6.61561 25.5994 6.61131 25.6655 6.61991 25.7306C6.62851 25.7956 6.64984 25.8583 6.68267 25.9151C6.7155 25.9719 6.7592 26.0217 6.81127 26.0616C6.86334 26.1015 6.92276 26.1307 6.98614 26.1477C7.04952 26.1646 7.11561 26.1689 7.18065 26.1603C7.24568 26.1517 7.30839 26.1304 7.36519 26.0976Z" fill="#1C1C1E"/>
<path fill-rule="evenodd" clip-rule="evenodd" d="M0 24.0009C0 18.4758 4.47583 14 9.99912 14C15.5224 14 19.9982 18.4776 19.9982 24.0009C19.9982 29.5224 15.5224 34 9.99912 34C4.47758 34 0 29.5224 0 24.0009ZM1.12817 24.0009C1.12817 28.8996 5.10045 32.8718 9.99912 32.8718C14.8978 32.8718 18.8701 28.8996 18.8701 24.0009C18.8701 19.1022 14.8978 15.1299 9.99912 15.1299C5.10045 15.1299 1.12817 19.1004 1.12817 24.0009Z" fill="#1C1C1E"/>
<path d="M73.2411 21.9691H76.5783V15.2966H79.6926V32.7034H76.5783V25.0606H73.2411V32.7034H70.1917V15.2966H73.2411V21.9691Z" fill="#1C1C1E"/>
<path d="M27.3494 22.0779L29.6514 15.2966H32.5007L28.9934 25.6238V32.7034H25.6071V25.9695L22.2244 15.2966H25.265L27.3494 22.0779Z" fill="#1C1C1E"/>
<path d="M48.4723 15.2966L50.1672 23.5763L51.627 15.2966H56.587V32.7034H53.3868V19.397L51.3199 30.9892H48.7723L46.4423 19.583V32.7034H43.714V15.2966H48.4723Z" fill="#1C1C1E"/>
<path fill-rule="evenodd" clip-rule="evenodd" d="M84.2684 15.2966H88.9829L91.8551 32.7034H88.746L88.0916 28.6522H84.5825L83.9087 32.7034H81.0874L84.2684 15.2966ZM86.3633 17.967L85.0667 25.7519H87.6231L86.3633 17.967Z" fill="#1C1C1E"/>
<path fill-rule="evenodd" clip-rule="evenodd" d="M57.9784 32.7034L61.1611 15.2966H65.8738L68.746 32.7034H65.6387L64.9843 28.6522H61.4752L60.7997 32.7034H57.9784ZM63.2561 17.967L61.9595 25.7519H64.5158L63.2561 17.967Z" fill="#1C1C1E"/>
<path fill-rule="evenodd" clip-rule="evenodd" d="M31.4989 32.7034L34.6816 15.2966H39.3943L42.2665 32.7034H39.1592L38.5048 28.6522H34.9957L34.3202 32.7034H31.4989ZM36.7783 17.967L35.4817 25.7519H38.0363L36.7783 17.967Z" fill="#1C1C1E"/>
</svg>
