<svg width="91" height="48" viewBox="0 0 91 48" fill="none" xmlns="http://www.w3.org/2000/svg">
<path d="M58.8461 33.4661H62.1737V14.9121H58.8461V33.4661ZM68.9628 33.4661H72.2903V19.673H68.9628V33.4661ZM83.9926 29.7508C82.9206 31.8643 82.005 33.5996 82.005 33.5996H78.5434L82.139 26.5695L78.0074 19.8065H81.603L83.7246 23.3882L85.5782 19.8065H89.196C89.196 19.8065 87.4764 23.2547 85.7345 26.703L90 33.733H86.5161L83.9926 29.7508ZM19.9653 27.5039V19.673H23.1588C23.2928 22.1869 23.1588 25.1012 23.1588 27.5039C23.1588 29.1057 24.4988 30.5517 26.2184 30.5517C27.938 30.5517 29.2779 29.3504 29.2779 27.6374V19.5395H32.4715V27.5039C32.4715 30.9522 29.6799 33.733 26.2184 33.733C22.7568 33.8665 19.9653 30.9522 19.9653 27.5039ZM45.536 30.5517C47.6576 30.5517 49.3995 28.8387 49.3995 26.703C49.3995 24.5673 47.6799 22.8543 45.536 22.8543C43.4144 22.8543 41.6725 24.5673 41.6725 26.703C41.6725 28.8387 43.3921 30.5517 45.536 30.5517ZM45.536 19.406C49.5335 19.406 52.861 22.7208 52.861 26.703C52.861 30.6852 49.5112 34 45.536 34C41.5385 34 38.2109 30.5517 38.2109 26.436V14.8899H41.5385V20.7186C42.7221 19.9399 44.062 19.406 45.536 19.406ZM7.32506 25.5239C9.44665 25.5239 11.1886 23.8109 11.1886 21.6752C11.1886 19.5617 9.46898 17.8265 7.32506 17.8265C5.18114 17.8265 3.46154 19.5395 3.46154 21.6752C3.46154 23.8109 5.20347 25.5239 7.32506 25.5239ZM7.32506 14.3782C11.3226 14.3782 14.6501 17.693 14.6501 21.6752C14.6501 25.6574 11.3226 28.9722 7.32506 28.9722C5.85112 28.9722 4.5335 28.5717 3.32754 27.9043V33.4661H0V21.5417C0 17.5595 3.32754 14.3782 7.32506 14.3782ZM70.8164 18.2269C72.0223 18.2269 72.938 17.2925 72.938 16.1135C72.938 14.9121 72 14 70.8164 14C69.6328 14 68.6948 14.9344 68.6948 16.1135C68.6948 17.2925 69.6104 18.2269 70.8164 18.2269Z" fill="#1C1C1E"/>
</svg>
