<svg width="116" height="48" viewBox="0 0 116 48" fill="none" xmlns="http://www.w3.org/2000/svg">
<path d="M14.5373 28.651V34H7.46274V28.651L9.1451 26.9255H12.8118L14.5373 28.651Z" fill="#1C1C1E"/>
<path d="M14.9255 21.1451L16.6078 19.4627H22V26.5373H16.6078L14.9255 24.8549V21.1451Z" fill="#1C1C1E"/>
<path d="M7.46274 12H14.5373V17.3922L12.8118 19.0745H9.1451L7.46274 17.3922V12Z" fill="#1C1C1E"/>
<path d="M22 28.651V34H14.9255V26.9255H20.3176L22 28.651Z" fill="#1C1C1E"/>
<path d="M0 13.6824L1.68235 12H7.07451V19.0745H0V13.6824Z" fill="#1C1C1E"/>
<path d="M14.9255 17.3922V12H22V19.0745H16.6078L14.9255 17.3922Z" fill="#1C1C1E"/>
<path d="M10.0078 23.0431C10.0078 23.5608 10.4392 24.0353 11 24.0353C11.5608 24.0353 11.9922 23.5608 11.9922 23.0431C11.9922 22.5255 11.5608 22.051 11 22.051C10.4824 22.051 10.0078 22.4824 10.0078 23.0431Z" fill="#1C1C1E"/>
<path d="M0 19.4627H7.07451V24.8549L5.34902 26.5373H0V19.4627Z" fill="#1C1C1E"/>
<path d="M5.34902 26.9255L7.07451 28.651V32.3176L5.34902 34H0V26.9255H5.34902Z" fill="#1C1C1E"/>
<path d="M36.9253 28.4784C36.9684 28.6078 37.0115 28.651 37.141 28.651H39.2547C39.3841 28.651 39.4272 28.6078 39.4704 28.4784L42.49 17.6078C42.49 17.5216 42.4468 17.4353 42.3606 17.4353H39.6429C39.5135 17.4353 39.4272 17.5216 39.4272 17.6078L38.0468 24.1216H38.0037L36.1919 17.6078C36.1488 17.4784 36.1057 17.4353 35.9762 17.4353H34.2939C34.1645 17.4353 34.1213 17.4784 34.0782 17.6078L32.3527 24.1216H32.3096L30.886 17.6078C30.886 17.5216 30.7998 17.4353 30.6704 17.4353H27.9527C27.8233 17.4353 27.8233 17.5216 27.8233 17.6078L30.8429 28.4784C30.8861 28.6078 30.9292 28.651 31.0586 28.651H33.1292C33.2586 28.651 33.3017 28.6078 33.3449 28.4784L35.1135 22.2235H35.1566L36.9253 28.4784Z" fill="#1C1C1E"/>
<path fill-rule="evenodd" clip-rule="evenodd" d="M44.4743 28.4784C44.4743 28.5647 44.5606 28.651 44.6468 28.651V28.6078H47.2351C47.3213 28.6078 47.4076 28.5216 47.4076 28.4353V24.9843C47.4076 24.9412 47.4076 24.898 47.4939 24.898H49.1331C51.8508 24.898 53.2743 23.302 53.2743 21.1451C53.2743 18.9882 51.8508 17.4353 49.1331 17.4353H44.6468C44.5606 17.4353 44.4743 17.5216 44.4743 17.6078V28.4784ZM48.9606 19.9373C49.8664 19.9373 50.3841 20.4118 50.3841 21.1882C50.3841 21.9216 49.8664 22.4392 48.9606 22.4392H47.4939C47.4508 22.4392 47.4076 22.4392 47.4076 22.3529V20.0235C47.4076 19.9804 47.4076 19.9373 47.4939 19.9373H48.9606Z" fill="#1C1C1E"/>
<path fill-rule="evenodd" clip-rule="evenodd" d="M56.8115 23.0863C56.8115 24.5529 56.8978 25.2863 57.1135 25.8902C57.7174 27.702 59.0115 28.6078 60.9527 28.6078C62.5919 28.6078 63.8429 27.8745 64.5762 26.8392C64.6625 26.7529 64.6625 26.6235 64.5331 26.5373L64.4037 26.4078C64.3174 26.3216 64.188 26.3216 64.1017 26.451C63.4547 27.3137 62.3762 27.9608 60.9096 27.9608C59.3566 27.9608 58.1919 27.2706 57.6743 25.6745C57.5017 25.1137 57.4155 24.4667 57.4155 23.302C57.4155 23.2157 57.4586 23.1294 57.5449 23.1294H64.5762C64.7488 23.1294 64.8351 23.0431 64.8351 22.9137C64.8351 21.5765 64.7488 20.8863 64.5331 20.2823C63.9723 18.5137 62.6351 17.6078 60.8233 17.6078C59.0547 17.6078 57.6743 18.5137 57.1135 20.2823C56.941 20.8863 56.8115 21.6627 56.8115 23.0863ZM64.2311 22.3961C64.2311 22.4823 64.188 22.5255 64.1017 22.5255H57.6311C57.5449 22.5255 57.5017 22.4823 57.5017 22.3961C57.5017 21.6196 57.588 21.0588 57.7606 20.5412C58.2351 18.9882 59.3566 18.2549 60.8664 18.2549C62.3762 18.2549 63.4978 19.0314 63.9723 20.5412C64.1449 21.0588 64.2311 21.6627 64.2311 22.3961Z" fill="#1C1C1E"/>
<path d="M74.6272 28.1765C74.6272 28.3059 74.7135 28.3922 74.8429 28.3922H75.1017C75.2311 28.3922 75.3174 28.3059 75.3174 28.1765V21.7059C75.3174 18.9882 73.9802 17.651 71.6076 17.651C70.0978 17.651 68.89 18.3843 68.3723 19.5922H68.3292V18.1255C68.3292 17.9961 68.2429 17.9098 68.1135 17.9098H67.8978C67.7684 17.9098 67.6821 17.9961 67.6821 18.1255V28.2196C67.6821 28.349 67.7684 28.4353 67.8978 28.4353H68.1135C68.2429 28.4353 68.3292 28.349 68.3292 28.2196V21.5765C68.3292 19.5059 69.7959 18.298 71.5645 18.298C73.5919 18.298 74.6272 19.3765 74.6272 21.8784V28.1765Z" fill="#1C1C1E"/>
<path fill-rule="evenodd" clip-rule="evenodd" d="M78.5096 30.8078C78.3802 30.851 78.3802 30.9804 78.4664 31.1098C78.9841 31.9294 80.2351 32.6196 81.7449 32.6627C84.1606 32.6627 85.7135 31.3686 85.7135 28.4784V18.1686C85.7135 18.0392 85.6272 17.9529 85.4978 17.9529H85.2821C85.1527 17.9529 85.0664 18.0392 85.0664 18.1686V19.6784H85.0233C84.5057 18.5137 83.5998 17.6941 81.7449 17.6941C79.9762 17.6941 78.7684 18.6431 78.2508 20.1961C78.0351 20.9294 77.9057 21.8784 77.9057 23.1725C77.9057 24.4667 77.9919 25.4157 78.2508 26.149C78.7684 27.702 79.9762 28.651 81.7449 28.651C83.5998 28.651 84.5057 27.8314 85.0233 26.6667H85.0664V28.4353C85.0664 31.0235 83.7723 32.0157 81.788 32.0157C80.4939 32.0157 79.588 31.5412 78.9841 30.7647C78.8978 30.6353 78.8115 30.5922 78.6821 30.6784L78.5096 30.8078ZM85.0664 23.1294C85.0664 24.4667 84.9802 25.2431 84.7645 25.8902C84.29 27.4431 83.1253 28.0039 81.8312 27.9176C80.4076 27.9176 79.4155 27.2274 78.941 25.8471C78.7253 25.2 78.5959 24.2941 78.5959 23.0863C78.5959 21.8784 78.7253 20.9725 78.941 20.3255C79.3723 18.9451 80.4076 18.2549 81.8312 18.2549C83.1253 18.2549 84.2468 18.8157 84.7645 20.3686C84.9802 21.0157 85.0664 21.8353 85.0664 23.1294Z" fill="#1C1C1E"/>
<path d="M89.1213 14.4157C89.1213 14.5451 89.2076 14.6314 89.337 14.6314V14.6745H89.8547C89.9841 14.6745 90.0704 14.5882 90.0704 14.4588V13.5529C90.0704 13.4235 89.9841 13.3373 89.8547 13.3373H89.337C89.2076 13.3373 89.1213 13.4235 89.1213 13.5529V14.4157Z" fill="#1C1C1E"/>
<path d="M89.2939 28.1765C89.2939 28.3059 89.3802 28.3922 89.5096 28.3922H89.7253C89.8547 28.3922 89.941 28.3059 89.941 28.1765V18.1255C89.941 17.9961 89.8547 17.9098 89.7253 17.9098H89.5096C89.3802 17.9098 89.2939 17.9961 89.2939 18.1255V28.1765Z" fill="#1C1C1E"/>
<path d="M100.466 28.1765C100.466 28.3059 100.553 28.3922 100.682 28.3922H100.941C101.07 28.3922 101.157 28.3059 101.157 28.1765V21.7059C101.157 18.9882 99.8194 17.651 97.4468 17.651C95.937 17.651 94.7292 18.3843 94.2115 19.5922H94.1684V18.1255C94.1684 17.9961 94.0821 17.9098 93.9527 17.9098H93.737C93.6076 17.9098 93.5213 17.9961 93.5213 18.1255V28.2196C93.5213 28.349 93.6076 28.4353 93.737 28.4353H93.9527C94.0821 28.4353 94.1684 28.349 94.1684 28.2196V21.5765C94.1684 19.5059 95.6351 18.298 97.4037 18.298C99.4311 18.298 100.466 19.3765 100.466 21.8784V28.1765Z" fill="#1C1C1E"/>
<path fill-rule="evenodd" clip-rule="evenodd" d="M103.788 23.0863C103.788 24.5529 103.874 25.2863 104.09 25.8902C104.651 27.702 105.988 28.6078 107.929 28.6078C109.568 28.6078 110.819 27.8745 111.553 26.8392C111.639 26.7529 111.639 26.6235 111.51 26.5373L111.38 26.4078C111.294 26.3216 111.164 26.3216 111.078 26.451C110.431 27.3137 109.353 27.9608 107.886 27.9608C106.333 27.9608 105.168 27.2706 104.651 25.6745C104.478 25.1137 104.392 24.4667 104.392 23.302C104.392 23.2157 104.435 23.1294 104.521 23.1294H111.553C111.725 23.1294 111.812 23.0431 111.812 22.9137C111.812 21.5765 111.725 20.8863 111.51 20.2823C110.949 18.5137 109.612 17.6078 107.8 17.6078C106.031 17.6078 104.651 18.5137 104.09 20.2823C103.917 20.8863 103.788 21.6627 103.788 23.0863ZM111.164 22.3961C111.164 22.4823 111.121 22.5255 111.035 22.5255H104.564C104.478 22.5255 104.435 22.4823 104.435 22.3961C104.435 21.6196 104.521 21.0588 104.694 20.5412C105.168 18.9882 106.29 18.2549 107.8 18.2549C109.31 18.2549 110.431 19.0314 110.906 20.5412C111.078 21.0588 111.164 21.6627 111.164 22.3961Z" fill="#1C1C1E"/>
<path fill-rule="evenodd" clip-rule="evenodd" d="M113.931 19.673C113.936 19.6784 113.947 19.6784 113.968 19.6784H114.055C114.055 19.6784 114.098 19.6784 114.098 19.6353V19.1176H114.4L114.702 19.6784C114.723 19.6784 114.734 19.6892 114.745 19.7C114.756 19.7108 114.766 19.7216 114.788 19.7216H114.917C114.961 19.7216 115.004 19.6784 114.961 19.6353L114.659 19.0745C114.874 19.0314 114.961 18.8588 114.961 18.6863C114.961 18.4274 114.788 18.2549 114.486 18.2549H113.968C113.947 18.2549 113.936 18.2549 113.931 18.2603C113.925 18.2657 113.925 18.2765 113.925 18.298V19.6353C113.925 19.6569 113.925 19.6676 113.931 19.673ZM114.486 18.4274C114.659 18.4274 114.745 18.5137 114.745 18.6431C114.745 18.7725 114.659 18.8588 114.486 18.8588H114.141V18.4274H114.486Z" fill="#1C1C1E"/>
<path fill-rule="evenodd" clip-rule="evenodd" d="M114.4 17.651C113.666 17.651 113.106 18.2118 113.106 18.9451C113.106 19.6784 113.666 20.2392 114.4 20.2392C115.133 20.2392 115.694 19.6784 115.694 18.9451C115.694 18.2118 115.133 17.651 114.4 17.651ZM114.4 17.8667C115.004 17.8667 115.478 18.298 115.478 18.9451C115.478 19.5922 115.004 20.0235 114.4 20.0235C113.796 20.0235 113.321 19.5922 113.321 18.9451C113.321 18.3412 113.753 17.8667 114.4 17.8667Z" fill="#1C1C1E"/>
</svg>
