<svg width="51" height="48" viewBox="0 0 51 48" fill="none" xmlns="http://www.w3.org/2000/svg">
<path d="M21.1092 26.3682C20.7107 26.8069 20.2756 27.0263 19.8051 27.0263C19.5233 27.0263 19.2779 26.9174 19.0697 26.6966C18.8655 26.4879 18.7527 26.208 18.7556 25.9177C18.7548 25.4591 18.9064 25.1094 19.2109 24.8651C19.5156 24.6203 20.1554 24.3459 21.1313 24.0407L21.4901 23.9277L21.4925 25.1763C21.4933 25.6837 21.3655 26.0808 21.1092 26.3682Z" fill="#1C1C1E"/>
<path d="M33.9477 21.4756C34.3108 20.9951 34.7571 20.7541 35.2873 20.7533C35.7163 20.7525 36.0666 20.9248 36.3408 21.2691C36.6162 21.6139 36.7525 22.0593 36.753 22.6042C36.7541 22.9582 36.6295 23.1817 36.3798 23.2755C36.1296 23.3693 35.5329 23.4179 34.591 23.4195L33.2856 23.4211C33.3633 22.6058 33.5846 21.9577 33.9477 21.4756Z" fill="#1C1C1E"/>
<path fill-rule="evenodd" clip-rule="evenodd" d="M50.9843 31.553C50.9631 31.4522 50.9209 31.357 50.8605 31.2732C50.8605 31.2732 48.3022 27.6372 47.2889 24.8217C46.2795 22.0164 45.8242 19.2464 45.8744 16.8175C45.9235 14.3886 45.4688 11.6178 44.4593 8.81305C43.4461 5.99805 40.8877 2.36209 40.8877 2.36209C40.6339 2.00027 40.1138 1.89162 39.7336 2.11836C39.7336 2.11836 34.4833 5.25554 30.6882 6.59227C26.907 7.92307 23.2288 8.68229 20.0519 8.88746C16.8751 9.09183 13.1969 9.85159 9.41486 11.1827C5.62001 12.5186 0.370307 15.6558 0.370307 15.6558C0.280534 15.7079 0.202716 15.778 0.141805 15.8615C0.0808932 15.945 0.0382214 16.0401 0.016504 16.1408C-0.00521329 16.2415 -0.00550066 16.3456 0.0156602 16.4464C0.036821 16.5472 0.0789668 16.6426 0.139416 16.7264C0.139416 16.7264 2.69776 20.3623 3.71046 23.1776C4.72016 25.9821 5.1754 28.7523 5.12552 31.1815C5.07645 33.6105 5.53251 36.381 6.5414 39.1871C7.55519 42.0013 10.1119 45.6388 10.1119 45.6388C10.3665 45.9985 10.8861 46.109 11.2661 45.8815C11.2661 45.8815 16.5166 42.744 20.3114 41.4065C24.0935 40.0757 27.7719 39.317 30.9488 39.1116C34.1248 38.9072 37.8027 38.1488 41.585 36.8161C45.3796 35.4802 50.6304 32.3433 50.6304 32.3433C50.7201 32.2911 50.7978 32.221 50.8586 32.1376C50.9194 32.0541 50.962 31.959 50.9836 31.8583C51.0052 31.7577 51.0055 31.6537 50.9843 31.553ZM14.7282 22.7236L10.2751 22.7312L10.2803 25.9266C10.2811 26.4421 10.3514 26.7802 10.491 26.943C10.6297 27.1053 10.92 27.1857 11.3619 27.1838H11.4568L11.4576 27.5709L7.83531 27.5777L7.8345 27.1905H7.93617C8.37724 27.1905 8.66647 27.1088 8.80277 26.9492C8.93988 26.7885 9.00749 26.4475 9.00667 25.9282L8.99577 19.539C8.99495 19.0235 8.92544 18.6851 8.78832 18.5252C8.6512 18.3654 8.36197 18.2858 7.91982 18.2869H7.81923L7.81841 17.8943L11.4393 17.8873L11.4402 18.2807H11.3453C10.9037 18.2815 10.6131 18.3619 10.4754 18.5225C10.3367 18.6824 10.2683 19.0208 10.2688 19.5371L10.274 22.2507L14.7272 22.2432L14.7228 19.5287C14.7212 19.013 14.6516 18.6757 14.5121 18.5153C14.3741 18.3551 14.0838 18.2756 13.6414 18.2767L13.5473 18.2775L13.5465 17.8841L17.1677 17.8774L17.1685 18.2707H17.0669C16.6258 18.2707 16.3363 18.3521 16.2003 18.512C16.0632 18.6735 15.9956 19.0108 15.9961 19.5274L16.0081 25.9169C16.0089 26.4361 16.0782 26.7772 16.2153 26.9363C16.3516 27.097 16.6411 27.1759 17.0827 27.1759L17.1833 27.1738L17.1841 27.5623L13.5629 27.5677L13.5621 27.1805H13.6577C14.0988 27.1805 14.3891 27.0983 14.5279 26.9363C14.6666 26.7742 14.7353 26.434 14.7334 25.9185L14.7282 22.7236ZM22.0107 27.3914C22.2231 27.6273 22.5066 27.7462 22.8604 27.7443C23.1911 27.7443 23.5237 27.6681 23.8583 27.5167V27.5491L27.3857 27.5437L27.3846 27.1571H27.3026C26.8522 27.1571 26.5573 27.0781 26.4155 26.9174C26.2746 26.7583 26.2032 26.4189 26.2026 25.898L26.1958 22.2173C26.5993 21.925 26.9858 21.7066 27.3554 21.5629C27.7245 21.419 28.0787 21.3467 28.4145 21.3459C28.8771 21.3451 29.2105 21.4807 29.4155 21.7552C29.6205 22.0296 29.7227 22.4742 29.7243 23.0903L29.7287 25.8913C29.7303 26.4068 29.6622 26.7467 29.5259 26.909C29.3896 27.0716 29.0998 27.1533 28.659 27.1533H28.5573L28.5584 27.5418L32.0788 27.5351L32.0782 27.1485H31.9894C31.5442 27.1485 31.2514 27.0695 31.1124 26.9088C30.9737 26.7497 30.9033 26.4087 30.9017 25.8894L30.8973 23.1127C30.8957 22.069 30.703 21.35 30.3197 20.9558C29.9443 20.5689 29.4716 20.3756 28.8992 20.378C28.5042 20.378 28.0803 20.4996 27.6294 20.7414C27.1764 20.9836 26.6993 21.3467 26.1955 21.8296L26.1928 20.3891L23.8471 21.2596L23.8479 21.3535L24.2075 21.509C24.5818 21.6665 24.8118 21.8261 24.8955 21.9887C24.9803 22.1502 25.0226 22.5176 25.0234 23.0919L25.0294 25.8999C25.0302 26.4208 24.9623 26.7602 24.8255 26.9214C24.702 27.0668 24.4563 27.1462 24.0896 27.161L24.0893 27.0314C23.951 27.0511 23.8116 27.0618 23.6719 27.0635C23.2726 27.0651 23.006 26.9392 22.8708 26.6901C22.7353 26.4405 22.6677 25.9398 22.666 25.1868L22.6609 22.2291C22.66 21.5805 22.5017 21.1111 22.1852 20.8204C21.8684 20.5333 21.3557 20.3909 20.645 20.3917C19.7869 20.3934 19.0707 20.6136 18.4953 21.0504C17.9103 21.5015 17.6194 21.9754 17.6202 22.475V22.6616L18.9759 22.2289V21.9175C18.9751 21.5885 19.0716 21.3432 19.2646 21.1809C19.4576 21.0178 19.7479 20.9364 20.1347 20.9356C20.5087 20.9347 20.8244 21.0286 21.0817 21.2143C21.2502 21.3308 21.36 21.4729 21.4102 21.6419C21.462 21.8102 21.4881 22.1081 21.4881 22.5368L21.4909 23.516L20.6267 23.7673C19.5044 24.0854 18.6989 24.4265 18.2123 24.7915C17.7238 25.1566 17.482 25.5998 17.4829 26.1191C17.4837 26.5893 17.6377 26.9794 17.9449 27.2892C18.2521 27.5987 18.6381 27.751 19.1002 27.751C19.5631 27.7506 20.0173 27.6269 20.4152 27.393C20.8282 27.1555 21.2202 26.7985 21.589 26.3251C21.6569 26.7985 21.7973 27.1533 22.0107 27.3914ZM35.9603 26.9476C35.1951 26.9492 34.5531 26.6764 34.0352 26.131C33.5173 25.5855 33.2564 24.9088 33.2548 24.1016C33.2548 24.0474 33.2564 23.9495 33.2616 23.8088L38.0934 23.7996V23.6007C38.0912 22.581 37.848 21.7875 37.3604 21.2184C36.8738 20.6492 36.1934 20.3653 35.3186 20.3672C34.3471 20.368 33.5388 20.7196 32.8938 21.4192C32.2497 22.1189 31.9286 22.9978 31.9307 24.0541C31.9329 25.1234 32.2704 26.0023 32.9445 26.692C33.6192 27.3819 34.4768 27.7246 35.5209 27.723C36.3861 27.7214 37.28 27.4601 38.2 26.9379L38.1989 26.3523C37.4378 26.7484 36.6925 26.946 35.9603 26.9476ZM38.9158 27.2493L38.7615 25.4895L39.2664 25.4879L39.2849 25.6138C39.4676 26.757 40.0624 27.3278 41.068 27.3264C41.5014 27.3248 41.873 27.1905 42.1834 26.9231C42.4939 26.6535 42.6499 26.3302 42.6488 25.9568C42.6482 25.7241 42.5673 25.5181 42.4075 25.3391C42.2467 25.1652 41.8602 24.9142 41.2457 24.5861L40.6457 24.2634C39.5005 23.6454 38.9264 22.9558 38.9259 22.1941C38.9243 21.6293 39.1342 21.1814 39.5548 20.8523C39.9743 20.5233 40.544 20.3575 41.2634 20.3559C41.873 20.3551 42.5422 20.4856 43.27 20.746L43.2728 22.1933L42.7679 22.1941L42.7488 22.076C42.718 21.876 42.6785 21.7053 42.6275 21.5613C42.58 21.422 42.5059 21.2929 42.4092 21.1812C42.3143 21.0706 42.1818 20.9703 42.0082 20.8789C41.8362 20.7875 41.5807 20.7425 41.2457 20.7433C40.8916 20.7433 40.6027 20.8455 40.3778 21.0472C40.1529 21.2488 40.0414 21.5085 40.0414 21.8239C40.0419 22.2858 40.4876 22.7597 41.3752 23.2445L42.0387 23.6052C42.6878 23.9584 43.1354 24.2839 43.3848 24.5823C43.629 24.8872 43.7517 25.2553 43.7517 25.6923C43.7534 26.3 43.5083 26.7885 43.0176 27.1574C42.5256 27.527 41.8757 27.7114 41.0685 27.713C40.218 27.7141 39.5003 27.5604 38.9158 27.2493Z" fill="#1C1C1E"/>
</svg>
