<svg width="113" height="48" viewBox="0 0 113 48" fill="none" xmlns="http://www.w3.org/2000/svg">
<path d="M56.5301 19.3443C51.2462 19.3443 48.2197 21.5853 48.2197 25.4926C48.2197 29.359 51.2462 31.5994 56.5299 31.5994C61.8074 31.5994 64.8274 29.3592 64.8274 25.4926C64.8274 21.5853 61.8074 19.3443 56.5301 19.3443ZM56.5301 28.7616C53.6403 28.7616 52.18 27.6695 52.18 25.4926C52.18 23.2923 53.6403 22.1905 56.5301 22.1905C59.4126 22.1905 60.8872 23.2923 60.8872 25.4926C60.8872 27.6695 59.4128 28.7616 56.5301 28.7616ZM80.3228 19.6437H65.9085V22.2574H70.9124V30.3718C70.9124 31.1453 72.109 31.4247 73.1207 31.4247C74.13 31.4247 75.3266 31.1591 75.3266 30.3718V22.2574H80.3228M106.947 28.6001C105.724 28.6001 104.884 28.3981 104.424 28.023C103.829 27.5228 103.76 26.7797 103.744 26.216V20.4887C103.744 19.7246 102.608 19.476 101.64 19.476C100.657 19.476 99.5149 19.7246 99.5149 20.4759V26.0231C99.5149 28.1395 100.203 29.6247 101.575 30.4375C103.267 31.4072 106.343 31.3724 109.301 31.3356H113V28.6001M50.0507 16.1003H32.5752V18.9821H38.6011V27.7318C38.6011 29.7993 40.3621 31.2052 43.3491 31.4492V18.9821H50.0507M90.0585 19.7846C89.6859 19.533 89.2952 19.4759 88.7852 19.4602C88.2623 19.4767 87.8556 19.533 87.4941 19.7846C86.3523 20.5965 80.8333 26.0738 79.86 30.8644L79.7493 31.3379H83.6542L83.7255 30.9945C83.8893 30.3182 84.14 29.5821 84.4825 28.825H93.0668C93.4088 29.5821 93.6684 30.3182 93.8114 30.9944L93.8944 31.3379H97.8059L97.7016 30.8644C96.7165 26.0737 91.2022 20.5965 90.0585 19.7846ZM85.8601 26.3603C86.7069 25.094 87.6875 23.9201 88.7853 22.8585C89.8703 23.9262 90.8434 25.0994 91.6898 26.3603" fill="#1C1C1E"/>
<path fill-rule="evenodd" clip-rule="evenodd" d="M23.8788 14.6101C23.2306 12.8039 22.0764 11.2732 20.295 10.2347C17.3009 8.4904 13.1031 8.67909 11.1422 10.2679C13.9939 9.38434 15.9385 10.029 17.2107 11.3546C17.2691 11.4249 17.3257 11.4974 17.3803 11.5721C14.2514 10.8578 10.1937 10.7662 6.14447 12.7879C4.02957 13.8403 1.85151 16.0289 0.676759 19.0025C1.5432 17.5909 3.04181 16.6334 5.99407 16.2222C8.93931 15.8547 13.0022 16.3072 16.9719 17.6928C17.4795 17.8773 17.9677 18.0705 18.437 18.2718C18.1532 20.4085 17.121 24.3777 15.3077 27.9116C14.9988 27.9057 14.6911 27.8917 14.3858 27.8693C11.7484 27.6753 6.86368 26.3282 4.39887 24.8362C7.00405 27.2998 10.0487 29.1727 13.5021 30.182C13.6356 30.2212 13.7694 30.2591 13.9034 30.2956C13.6493 30.6689 13.3845 31.0292 13.1089 31.3728C9.49008 30.3958 5.55691 28.4725 2.46531 25.015L2.37598 24.9151C3.93233 21.3123 12.4289 18.9728 14.9346 19.0025C9.30362 17.2117 3.78411 18.066 1.56745 19.9656L1.56625 19.967H1.56511C1.37188 20.1345 1.19538 20.32 1.03806 20.5208C-0.159258 22.0461 -0.301799 24.5223 0.512174 27.1472C1.60718 30.6556 4.97585 33.3038 8.87675 34.6021C6.8232 35.1721 4.57998 34.5079 3.42444 32.8131C4.69712 36.5823 10.2189 38.611 15.7632 35.4139C15.9726 35.3924 16.1807 35.3663 16.3872 35.3355C20.368 34.7427 22.8829 32.552 23.9603 31.6135L24.0038 31.5756C22.2525 32.0681 20.8526 32.2355 19.4933 32.2419C19.8192 31.8508 20.1355 31.4363 20.4403 31.002C22.0044 30.8985 23.3917 30.5743 24.4364 30.037L24.9233 29.7562C25.0896 29.6484 25.2534 29.5291 25.4068 29.3899C25.477 29.3277 25.5505 29.2588 25.6207 29.1862C28.4266 26.3744 29.257 19.0869 23.8788 14.6101ZM25.8678 24.4347C25.1766 25.2132 24.1426 25.8983 22.9023 26.4501C23.4887 25.0104 23.9417 23.5039 24.2206 22.0037C25.003 22.8092 25.5446 23.6051 25.8678 24.4347Z" fill="#1C1C1E"/>
</svg>
